# Low-poly female rabbit T-pose reference generated from 2D concept.
mtllib female_rabbit_tpose_lowpoly.mtl
v 0.00000 1.93000 0.00000
v 0.00000 1.93000 0.00000
v 0.00000 1.93000 0.00000
v 0.00000 1.93000 0.00000
v 0.00000 1.93000 0.00000
v 0.00000 1.93000 0.00000
v 0.00000 1.93000 0.00000
v 0.00000 1.93000 0.00000
v 0.00000 1.93000 0.00000
v 0.00000 1.93000 0.00000
v 0.00000 1.93000 0.00000
v 0.00000 1.93000 0.00000
v 0.00000 1.93000 0.00000
v 0.00000 1.93000 0.00000
v 0.00000 1.93000 0.00000
v 0.00000 1.93000 0.00000
v 0.00000 1.93000 0.00000
v 0.00000 1.93000 0.00000
v 0.00000 1.93000 0.00000
v 0.00000 1.93000 0.00000
v 0.09889 1.90651 0.00000
v 0.09405 1.90651 0.02101
v 0.08000 1.90651 0.03996
v 0.05812 1.90651 0.05500
v 0.03056 1.90651 0.06466
v 0.00000 1.90651 0.06798
v -0.03056 1.90651 0.06466
v -0.05812 1.90651 0.05500
v -0.08000 1.90651 0.03996
v -0.09405 1.90651 0.02101
v -0.09889 1.90651 0.00000
v -0.09405 1.90651 -0.02101
v -0.08000 1.90651 -0.03996
v -0.05812 1.90651 -0.05500
v -0.03056 1.90651 -0.06466
v -0.00000 1.90651 -0.06798
v 0.03056 1.90651 -0.06466
v 0.05812 1.90651 -0.05500
v 0.08000 1.90651 -0.03996
v 0.09405 1.90651 -0.02101
v 0.18809 1.83833 0.00000
v 0.17889 1.83833 0.03996
v 0.15217 1.83833 0.07601
v 0.11056 1.83833 0.10462
v 0.05812 1.83833 0.12298
v 0.00000 1.83833 0.12931
v -0.05812 1.83833 0.12298
v -0.11056 1.83833 0.10462
v -0.15217 1.83833 0.07601
v -0.17889 1.83833 0.03996
v -0.18809 1.83833 0.00000
v -0.17889 1.83833 -0.03996
v -0.15217 1.83833 -0.07601
v -0.11056 1.83833 -0.10462
v -0.05812 1.83833 -0.12298
v -0.00000 1.83833 -0.12931
v 0.05812 1.83833 -0.12298
v 0.11056 1.83833 -0.10462
v 0.15217 1.83833 -0.07601
v 0.17889 1.83833 -0.03996
v 0.25889 1.73214 0.00000
v 0.24621 1.73214 0.05500
v 0.20944 1.73214 0.10462
v 0.15217 1.73214 0.14399
v 0.08000 1.73214 0.16927
v 0.00000 1.73214 0.17798
v -0.08000 1.73214 0.16927
v -0.15217 1.73214 0.14399
v -0.20944 1.73214 0.10462
v -0.24621 1.73214 0.05500
v -0.25889 1.73214 0.00000
v -0.24621 1.73214 -0.05500
v -0.20944 1.73214 -0.10462
v -0.15217 1.73214 -0.14399
v -0.08000 1.73214 -0.16927
v -0.00000 1.73214 -0.17798
v 0.08000 1.73214 -0.16927
v 0.15217 1.73214 -0.14399
v 0.20944 1.73214 -0.10462
v 0.24621 1.73214 -0.05500
v 0.30434 1.59833 0.00000
v 0.28944 1.59833 0.06466
v 0.24621 1.59833 0.12298
v 0.17889 1.59833 0.16927
v 0.09405 1.59833 0.19899
v 0.00000 1.59833 0.20923
v -0.09405 1.59833 0.19899
v -0.17889 1.59833 0.16927
v -0.24621 1.59833 0.12298
v -0.28944 1.59833 0.06466
v -0.30434 1.59833 0.00000
v -0.28944 1.59833 -0.06466
v -0.24621 1.59833 -0.12298
v -0.17889 1.59833 -0.16927
v -0.09405 1.59833 -0.19899
v -0.00000 1.59833 -0.20923
v 0.09405 1.59833 -0.19899
v 0.17889 1.59833 -0.16927
v 0.24621 1.59833 -0.12298
v 0.28944 1.59833 -0.06466
v 0.32000 1.45000 0.00000
v 0.30434 1.45000 0.06798
v 0.25889 1.45000 0.12931
v 0.18809 1.45000 0.17798
v 0.09889 1.45000 0.20923
v 0.00000 1.45000 0.22000
v -0.09889 1.45000 0.20923
v -0.18809 1.45000 0.17798
v -0.25889 1.45000 0.12931
v -0.30434 1.45000 0.06798
v -0.32000 1.45000 0.00000
v -0.30434 1.45000 -0.06798
v -0.25889 1.45000 -0.12931
v -0.18809 1.45000 -0.17798
v -0.09889 1.45000 -0.20923
v -0.00000 1.45000 -0.22000
v 0.09889 1.45000 -0.20923
v 0.18809 1.45000 -0.17798
v 0.25889 1.45000 -0.12931
v 0.30434 1.45000 -0.06798
v 0.30434 1.30167 0.00000
v 0.28944 1.30167 0.06466
v 0.24621 1.30167 0.12298
v 0.17889 1.30167 0.16927
v 0.09405 1.30167 0.19899
v 0.00000 1.30167 0.20923
v -0.09405 1.30167 0.19899
v -0.17889 1.30167 0.16927
v -0.24621 1.30167 0.12298
v -0.28944 1.30167 0.06466
v -0.30434 1.30167 0.00000
v -0.28944 1.30167 -0.06466
v -0.24621 1.30167 -0.12298
v -0.17889 1.30167 -0.16927
v -0.09405 1.30167 -0.19899
v -0.00000 1.30167 -0.20923
v 0.09405 1.30167 -0.19899
v 0.17889 1.30167 -0.16927
v 0.24621 1.30167 -0.12298
v 0.28944 1.30167 -0.06466
v 0.25889 1.16786 0.00000
v 0.24621 1.16786 0.05500
v 0.20944 1.16786 0.10462
v 0.15217 1.16786 0.14399
v 0.08000 1.16786 0.16927
v 0.00000 1.16786 0.17798
v -0.08000 1.16786 0.16927
v -0.15217 1.16786 0.14399
v -0.20944 1.16786 0.10462
v -0.24621 1.16786 0.05500
v -0.25889 1.16786 0.00000
v -0.24621 1.16786 -0.05500
v -0.20944 1.16786 -0.10462
v -0.15217 1.16786 -0.14399
v -0.08000 1.16786 -0.16927
v -0.00000 1.16786 -0.17798
v 0.08000 1.16786 -0.16927
v 0.15217 1.16786 -0.14399
v 0.20944 1.16786 -0.10462
v 0.24621 1.16786 -0.05500
v 0.18809 1.06167 0.00000
v 0.17889 1.06167 0.03996
v 0.15217 1.06167 0.07601
v 0.11056 1.06167 0.10462
v 0.05812 1.06167 0.12298
v 0.00000 1.06167 0.12931
v -0.05812 1.06167 0.12298
v -0.11056 1.06167 0.10462
v -0.15217 1.06167 0.07601
v -0.17889 1.06167 0.03996
v -0.18809 1.06167 0.00000
v -0.17889 1.06167 -0.03996
v -0.15217 1.06167 -0.07601
v -0.11056 1.06167 -0.10462
v -0.05812 1.06167 -0.12298
v -0.00000 1.06167 -0.12931
v 0.05812 1.06167 -0.12298
v 0.11056 1.06167 -0.10462
v 0.15217 1.06167 -0.07601
v 0.17889 1.06167 -0.03996
v 0.09889 0.99349 0.00000
v 0.09405 0.99349 0.02101
v 0.08000 0.99349 0.03996
v 0.05812 0.99349 0.05500
v 0.03056 0.99349 0.06466
v 0.00000 0.99349 0.06798
v -0.03056 0.99349 0.06466
v -0.05812 0.99349 0.05500
v -0.08000 0.99349 0.03996
v -0.09405 0.99349 0.02101
v -0.09889 0.99349 0.00000
v -0.09405 0.99349 -0.02101
v -0.08000 0.99349 -0.03996
v -0.05812 0.99349 -0.05500
v -0.03056 0.99349 -0.06466
v -0.00000 0.99349 -0.06798
v 0.03056 0.99349 -0.06466
v 0.05812 0.99349 -0.05500
v 0.08000 0.99349 -0.03996
v 0.09405 0.99349 -0.02101
v 0.00000 0.97000 0.00000
v 0.00000 0.97000 0.00000
v 0.00000 0.97000 0.00000
v 0.00000 0.97000 0.00000
v 0.00000 0.97000 0.00000
v 0.00000 0.97000 0.00000
v -0.00000 0.97000 0.00000
v -0.00000 0.97000 0.00000
v -0.00000 0.97000 0.00000
v -0.00000 0.97000 0.00000
v -0.00000 0.97000 0.00000
v -0.00000 0.97000 -0.00000
v -0.00000 0.97000 -0.00000
v -0.00000 0.97000 -0.00000
v -0.00000 0.97000 -0.00000
v -0.00000 0.97000 -0.00000
v 0.00000 0.97000 -0.00000
v 0.00000 0.97000 -0.00000
v 0.00000 0.97000 -0.00000
v 0.00000 0.97000 -0.00000
v 0.48000 1.02500 0.00000
v 0.32000 1.37500 0.00000
v 0.45651 1.02500 0.09271
v 0.30434 1.37500 0.06798
v 0.38833 1.02500 0.17634
v 0.25889 1.37500 0.12931
v 0.28214 1.02500 0.24271
v 0.18809 1.37500 0.17798
v 0.14833 1.02500 0.28532
v 0.09889 1.37500 0.20923
v 0.00000 1.02500 0.30000
v 0.00000 1.37500 0.22000
v -0.14833 1.02500 0.28532
v -0.09889 1.37500 0.20923
v -0.28214 1.02500 0.24271
v -0.18809 1.37500 0.17798
v -0.38833 1.02500 0.17634
v -0.25889 1.37500 0.12931
v -0.45651 1.02500 0.09271
v -0.30434 1.37500 0.06798
v -0.48000 1.02500 0.00000
v -0.32000 1.37500 0.00000
v -0.45651 1.02500 -0.09271
v -0.30434 1.37500 -0.06798
v -0.38833 1.02500 -0.17634
v -0.25889 1.37500 -0.12931
v -0.28214 1.02500 -0.24271
v -0.18809 1.37500 -0.17798
v -0.14833 1.02500 -0.28532
v -0.09889 1.37500 -0.20923
v -0.00000 1.02500 -0.30000
v -0.00000 1.37500 -0.22000
v 0.14833 1.02500 -0.28532
v 0.09889 1.37500 -0.20923
v 0.28214 1.02500 -0.24271
v 0.18809 1.37500 -0.17798
v 0.38833 1.02500 -0.17634
v 0.25889 1.37500 -0.12931
v 0.45651 1.02500 -0.09271
v 0.30434 1.37500 -0.06798
v 0.39000 1.32250 -0.01000
v 0.39000 1.39750 -0.01000
v 0.37091 1.32250 0.06880
v 0.37091 1.39750 0.06880
v 0.31552 1.32250 0.13989
v 0.31552 1.39750 0.13989
v 0.22924 1.32250 0.19630
v 0.22924 1.39750 0.19630
v 0.12052 1.32250 0.23252
v 0.12052 1.39750 0.23252
v 0.00000 1.32250 0.24500
v 0.00000 1.39750 0.24500
v -0.12052 1.32250 0.23252
v -0.12052 1.39750 0.23252
v -0.22924 1.32250 0.19630
v -0.22924 1.39750 0.19630
v -0.31552 1.32250 0.13989
v -0.31552 1.39750 0.13989
v -0.37091 1.32250 0.06880
v -0.37091 1.39750 0.06880
v -0.39000 1.32250 -0.01000
v -0.39000 1.39750 -0.01000
v -0.37091 1.32250 -0.08880
v -0.37091 1.39750 -0.08880
v -0.31552 1.32250 -0.15989
v -0.31552 1.39750 -0.15989
v -0.22924 1.32250 -0.21630
v -0.22924 1.39750 -0.21630
v -0.12052 1.32250 -0.25252
v -0.12052 1.39750 -0.25252
v -0.00000 1.32250 -0.26500
v -0.00000 1.39750 -0.26500
v 0.12052 1.32250 -0.25252
v 0.12052 1.39750 -0.25252
v 0.22924 1.32250 -0.21630
v 0.22924 1.39750 -0.21630
v 0.31552 1.32250 -0.15989
v 0.31552 1.39750 -0.15989
v 0.37091 1.32250 -0.08880
v 0.37091 1.39750 -0.08880
v 0.13500 1.32500 -0.26750
v 0.22500 1.32500 -0.26750
v 0.22500 1.39500 -0.26750
v 0.13500 1.39500 -0.26750
v 0.13500 1.32500 -0.24250
v 0.22500 1.32500 -0.24250
v 0.22500 1.39500 -0.24250
v 0.13500 1.39500 -0.24250
v 0.00000 2.57000 -0.02000
v 0.00000 2.57000 -0.02000
v 0.00000 2.57000 -0.02000
v 0.00000 2.57000 -0.02000
v 0.00000 2.57000 -0.02000
v 0.00000 2.57000 -0.02000
v 0.00000 2.57000 -0.02000
v 0.00000 2.57000 -0.02000
v 0.00000 2.57000 -0.02000
v 0.00000 2.57000 -0.02000
v 0.00000 2.57000 -0.02000
v 0.00000 2.57000 -0.02000
v 0.00000 2.57000 -0.02000
v 0.00000 2.57000 -0.02000
v 0.00000 2.57000 -0.02000
v 0.00000 2.57000 -0.02000
v 0.00000 2.57000 -0.02000
v 0.00000 2.57000 -0.02000
v 0.00000 2.57000 -0.02000
v 0.00000 2.57000 -0.02000
v 0.00000 2.57000 -0.02000
v 0.00000 2.57000 -0.02000
v 0.00000 2.57000 -0.02000
v 0.00000 2.57000 -0.02000
v 0.08800 2.55910 -0.02000
v 0.08500 2.55910 0.00010
v 0.07621 2.55910 0.01882
v 0.06222 2.55910 0.03490
v 0.04400 2.55910 0.04724
v 0.02278 2.55910 0.05500
v 0.00000 2.55910 0.05765
v -0.02278 2.55910 0.05500
v -0.04400 2.55910 0.04724
v -0.06222 2.55910 0.03490
v -0.07621 2.55910 0.01882
v -0.08500 2.55910 0.00010
v -0.08800 2.55910 -0.02000
v -0.08500 2.55910 -0.04010
v -0.07621 2.55910 -0.05882
v -0.06222 2.55910 -0.07490
v -0.04400 2.55910 -0.08724
v -0.02278 2.55910 -0.09500
v -0.00000 2.55910 -0.09765
v 0.02278 2.55910 -0.09500
v 0.04400 2.55910 -0.08724
v 0.06222 2.55910 -0.07490
v 0.07621 2.55910 -0.05882
v 0.08500 2.55910 -0.04010
v 0.17000 2.52713 -0.02000
v 0.16421 2.52713 0.01882
v 0.14722 2.52713 0.05500
v 0.12021 2.52713 0.08607
v 0.08500 2.52713 0.10990
v 0.04400 2.52713 0.12489
v 0.00000 2.52713 0.13000
v -0.04400 2.52713 0.12489
v -0.08500 2.52713 0.10990
v -0.12021 2.52713 0.08607
v -0.14722 2.52713 0.05500
v -0.16421 2.52713 0.01882
v -0.17000 2.52713 -0.02000
v -0.16421 2.52713 -0.05882
v -0.14722 2.52713 -0.09500
v -0.12021 2.52713 -0.12607
v -0.08500 2.52713 -0.14990
v -0.04400 2.52713 -0.16489
v -0.00000 2.52713 -0.17000
v 0.04400 2.52713 -0.16489
v 0.08500 2.52713 -0.14990
v 0.12021 2.52713 -0.12607
v 0.14722 2.52713 -0.09500
v 0.16421 2.52713 -0.05882
v 0.24042 2.47627 -0.02000
v 0.23222 2.47627 0.03490
v 0.20821 2.47627 0.08607
v 0.17000 2.47627 0.13000
v 0.12021 2.47627 0.16371
v 0.06222 2.47627 0.18490
v 0.00000 2.47627 0.19213
v -0.06222 2.47627 0.18490
v -0.12021 2.47627 0.16371
v -0.17000 2.47627 0.13000
v -0.20821 2.47627 0.08607
v -0.23222 2.47627 0.03490
v -0.24042 2.47627 -0.02000
v -0.23222 2.47627 -0.07490
v -0.20821 2.47627 -0.12607
v -0.17000 2.47627 -0.17000
v -0.12021 2.47627 -0.20371
v -0.06222 2.47627 -0.22490
v -0.00000 2.47627 -0.23213
v 0.06222 2.47627 -0.22490
v 0.12021 2.47627 -0.20371
v 0.17000 2.47627 -0.17000
v 0.20821 2.47627 -0.12607
v 0.23222 2.47627 -0.07490
v 0.29445 2.41000 -0.02000
v 0.28442 2.41000 0.04724
v 0.25500 2.41000 0.10990
v 0.20821 2.41000 0.16371
v 0.14722 2.41000 0.20500
v 0.07621 2.41000 0.23095
v 0.00000 2.41000 0.23981
v -0.07621 2.41000 0.23095
v -0.14722 2.41000 0.20500
v -0.20821 2.41000 0.16371
v -0.25500 2.41000 0.10990
v -0.28442 2.41000 0.04724
v -0.29445 2.41000 -0.02000
v -0.28442 2.41000 -0.08724
v -0.25500 2.41000 -0.14990
v -0.20821 2.41000 -0.20371
v -0.14722 2.41000 -0.24500
v -0.07621 2.41000 -0.27095
v -0.00000 2.41000 -0.27981
v 0.07621 2.41000 -0.27095
v 0.14722 2.41000 -0.24500
v 0.20821 2.41000 -0.20371
v 0.25500 2.41000 -0.14990
v 0.28442 2.41000 -0.08724
v 0.32841 2.33282 -0.02000
v 0.31722 2.33282 0.05500
v 0.28442 2.33282 0.12489
v 0.23222 2.33282 0.18490
v 0.16421 2.33282 0.23095
v 0.08500 2.33282 0.25990
v 0.00000 2.33282 0.26978
v -0.08500 2.33282 0.25990
v -0.16421 2.33282 0.23095
v -0.23222 2.33282 0.18490
v -0.28442 2.33282 0.12489
v -0.31722 2.33282 0.05500
v -0.32841 2.33282 -0.02000
v -0.31722 2.33282 -0.09500
v -0.28442 2.33282 -0.16489
v -0.23222 2.33282 -0.22490
v -0.16421 2.33282 -0.27095
v -0.08500 2.33282 -0.29990
v -0.00000 2.33282 -0.30978
v 0.08500 2.33282 -0.29990
v 0.16421 2.33282 -0.27095
v 0.23222 2.33282 -0.22490
v 0.28442 2.33282 -0.16489
v 0.31722 2.33282 -0.09500
v 0.34000 2.25000 -0.02000
v 0.32841 2.25000 0.05765
v 0.29445 2.25000 0.13000
v 0.24042 2.25000 0.19213
v 0.17000 2.25000 0.23981
v 0.08800 2.25000 0.26978
v 0.00000 2.25000 0.28000
v -0.08800 2.25000 0.26978
v -0.17000 2.25000 0.23981
v -0.24042 2.25000 0.19213
v -0.29445 2.25000 0.13000
v -0.32841 2.25000 0.05765
v -0.34000 2.25000 -0.02000
v -0.32841 2.25000 -0.09765
v -0.29445 2.25000 -0.17000
v -0.24042 2.25000 -0.23213
v -0.17000 2.25000 -0.27981
v -0.08800 2.25000 -0.30978
v -0.00000 2.25000 -0.32000
v 0.08800 2.25000 -0.30978
v 0.17000 2.25000 -0.27981
v 0.24042 2.25000 -0.23213
v 0.29445 2.25000 -0.17000
v 0.32841 2.25000 -0.09765
v 0.32841 2.16718 -0.02000
v 0.31722 2.16718 0.05500
v 0.28442 2.16718 0.12489
v 0.23222 2.16718 0.18490
v 0.16421 2.16718 0.23095
v 0.08500 2.16718 0.25990
v 0.00000 2.16718 0.26978
v -0.08500 2.16718 0.25990
v -0.16421 2.16718 0.23095
v -0.23222 2.16718 0.18490
v -0.28442 2.16718 0.12489
v -0.31722 2.16718 0.05500
v -0.32841 2.16718 -0.02000
v -0.31722 2.16718 -0.09500
v -0.28442 2.16718 -0.16489
v -0.23222 2.16718 -0.22490
v -0.16421 2.16718 -0.27095
v -0.08500 2.16718 -0.29990
v -0.00000 2.16718 -0.30978
v 0.08500 2.16718 -0.29990
v 0.16421 2.16718 -0.27095
v 0.23222 2.16718 -0.22490
v 0.28442 2.16718 -0.16489
v 0.31722 2.16718 -0.09500
v 0.29445 2.09000 -0.02000
v 0.28442 2.09000 0.04724
v 0.25500 2.09000 0.10990
v 0.20821 2.09000 0.16371
v 0.14722 2.09000 0.20500
v 0.07621 2.09000 0.23095
v 0.00000 2.09000 0.23981
v -0.07621 2.09000 0.23095
v -0.14722 2.09000 0.20500
v -0.20821 2.09000 0.16371
v -0.25500 2.09000 0.10990
v -0.28442 2.09000 0.04724
v -0.29445 2.09000 -0.02000
v -0.28442 2.09000 -0.08724
v -0.25500 2.09000 -0.14990
v -0.20821 2.09000 -0.20371
v -0.14722 2.09000 -0.24500
v -0.07621 2.09000 -0.27095
v -0.00000 2.09000 -0.27981
v 0.07621 2.09000 -0.27095
v 0.14722 2.09000 -0.24500
v 0.20821 2.09000 -0.20371
v 0.25500 2.09000 -0.14990
v 0.28442 2.09000 -0.08724
v 0.24042 2.02373 -0.02000
v 0.23222 2.02373 0.03490
v 0.20821 2.02373 0.08607
v 0.17000 2.02373 0.13000
v 0.12021 2.02373 0.16371
v 0.06222 2.02373 0.18490
v 0.00000 2.02373 0.19213
v -0.06222 2.02373 0.18490
v -0.12021 2.02373 0.16371
v -0.17000 2.02373 0.13000
v -0.20821 2.02373 0.08607
v -0.23222 2.02373 0.03490
v -0.24042 2.02373 -0.02000
v -0.23222 2.02373 -0.07490
v -0.20821 2.02373 -0.12607
v -0.17000 2.02373 -0.17000
v -0.12021 2.02373 -0.20371
v -0.06222 2.02373 -0.22490
v -0.00000 2.02373 -0.23213
v 0.06222 2.02373 -0.22490
v 0.12021 2.02373 -0.20371
v 0.17000 2.02373 -0.17000
v 0.20821 2.02373 -0.12607
v 0.23222 2.02373 -0.07490
v 0.17000 1.97287 -0.02000
v 0.16421 1.97287 0.01882
v 0.14722 1.97287 0.05500
v 0.12021 1.97287 0.08607
v 0.08500 1.97287 0.10990
v 0.04400 1.97287 0.12489
v 0.00000 1.97287 0.13000
v -0.04400 1.97287 0.12489
v -0.08500 1.97287 0.10990
v -0.12021 1.97287 0.08607
v -0.14722 1.97287 0.05500
v -0.16421 1.97287 0.01882
v -0.17000 1.97287 -0.02000
v -0.16421 1.97287 -0.05882
v -0.14722 1.97287 -0.09500
v -0.12021 1.97287 -0.12607
v -0.08500 1.97287 -0.14990
v -0.04400 1.97287 -0.16489
v -0.00000 1.97287 -0.17000
v 0.04400 1.97287 -0.16489
v 0.08500 1.97287 -0.14990
v 0.12021 1.97287 -0.12607
v 0.14722 1.97287 -0.09500
v 0.16421 1.97287 -0.05882
v 0.08800 1.94090 -0.02000
v 0.08500 1.94090 0.00010
v 0.07621 1.94090 0.01882
v 0.06222 1.94090 0.03490
v 0.04400 1.94090 0.04724
v 0.02278 1.94090 0.05500
v 0.00000 1.94090 0.05765
v -0.02278 1.94090 0.05500
v -0.04400 1.94090 0.04724
v -0.06222 1.94090 0.03490
v -0.07621 1.94090 0.01882
v -0.08500 1.94090 0.00010
v -0.08800 1.94090 -0.02000
v -0.08500 1.94090 -0.04010
v -0.07621 1.94090 -0.05882
v -0.06222 1.94090 -0.07490
v -0.04400 1.94090 -0.08724
v -0.02278 1.94090 -0.09500
v -0.00000 1.94090 -0.09765
v 0.02278 1.94090 -0.09500
v 0.04400 1.94090 -0.08724
v 0.06222 1.94090 -0.07490
v 0.07621 1.94090 -0.05882
v 0.08500 1.94090 -0.04010
v 0.00000 1.93000 -0.02000
v 0.00000 1.93000 -0.02000
v 0.00000 1.93000 -0.02000
v 0.00000 1.93000 -0.02000
v 0.00000 1.93000 -0.02000
v 0.00000 1.93000 -0.02000
v 0.00000 1.93000 -0.02000
v -0.00000 1.93000 -0.02000
v -0.00000 1.93000 -0.02000
v -0.00000 1.93000 -0.02000
v -0.00000 1.93000 -0.02000
v -0.00000 1.93000 -0.02000
v -0.00000 1.93000 -0.02000
v -0.00000 1.93000 -0.02000
v -0.00000 1.93000 -0.02000
v -0.00000 1.93000 -0.02000
v -0.00000 1.93000 -0.02000
v -0.00000 1.93000 -0.02000
v -0.00000 1.93000 -0.02000
v 0.00000 1.93000 -0.02000
v 0.00000 1.93000 -0.02000
v 0.00000 1.93000 -0.02000
v 0.00000 1.93000 -0.02000
v 0.00000 1.93000 -0.02000
v 0.00000 2.22000 -0.31000
v 0.00000 2.22000 -0.31000
v 0.00000 2.22000 -0.31000
v 0.00000 2.22000 -0.31000
v 0.00000 2.22000 -0.31000
v 0.00000 2.22000 -0.31000
v 0.00000 2.22000 -0.31000
v 0.00000 2.22000 -0.31000
v 0.00000 2.22000 -0.31000
v 0.00000 2.22000 -0.31000
v 0.00000 2.22000 -0.31000
v 0.00000 2.22000 -0.31000
v 0.00000 2.22000 -0.31000
v 0.00000 2.22000 -0.31000
v 0.00000 2.22000 -0.31000
v 0.00000 2.22000 -0.31000
v 0.00000 2.22000 -0.31000
v 0.00000 2.22000 -0.31000
v 0.06123 2.21315 -0.31000
v 0.05754 2.21315 -0.30084
v 0.04690 2.21315 -0.29278
v 0.03061 2.21315 -0.28680
v 0.01063 2.21315 -0.28362
v -0.01063 2.21315 -0.28362
v -0.03061 2.21315 -0.28680
v -0.04690 2.21315 -0.29278
v -0.05754 2.21315 -0.30084
v -0.06123 2.21315 -0.31000
v -0.05754 2.21315 -0.31916
v -0.04690 2.21315 -0.32722
v -0.03061 2.21315 -0.33320
v -0.01063 2.21315 -0.33638
v 0.01063 2.21315 -0.33638
v 0.03061 2.21315 -0.33320
v 0.04690 2.21315 -0.32722
v 0.05754 2.21315 -0.31916
v 0.11314 2.19364 -0.31000
v 0.10631 2.19364 -0.29307
v 0.08667 2.19364 -0.27818
v 0.05657 2.19364 -0.26713
v 0.01965 2.19364 -0.26125
v -0.01965 2.19364 -0.26125
v -0.05657 2.19364 -0.26713
v -0.08667 2.19364 -0.27818
v -0.10631 2.19364 -0.29307
v -0.11314 2.19364 -0.31000
v -0.10631 2.19364 -0.32693
v -0.08667 2.19364 -0.34182
v -0.05657 2.19364 -0.35287
v -0.01965 2.19364 -0.35875
v 0.01965 2.19364 -0.35875
v 0.05657 2.19364 -0.35287
v 0.08667 2.19364 -0.34182
v 0.10631 2.19364 -0.32693
v 0.14782 2.16444 -0.31000
v 0.13891 2.16444 -0.28788
v 0.11324 2.16444 -0.26843
v 0.07391 2.16444 -0.25399
v 0.02567 2.16444 -0.24631
v -0.02567 2.16444 -0.24631
v -0.07391 2.16444 -0.25399
v -0.11324 2.16444 -0.26843
v -0.13891 2.16444 -0.28788
v -0.14782 2.16444 -0.31000
v -0.13891 2.16444 -0.33212
v -0.11324 2.16444 -0.35157
v -0.07391 2.16444 -0.36601
v -0.02567 2.16444 -0.37369
v 0.02567 2.16444 -0.37369
v 0.07391 2.16444 -0.36601
v 0.11324 2.16444 -0.35157
v 0.13891 2.16444 -0.33212
v 0.16000 2.13000 -0.31000
v 0.15035 2.13000 -0.28606
v 0.12257 2.13000 -0.26500
v 0.08000 2.13000 -0.24938
v 0.02778 2.13000 -0.24106
v -0.02778 2.13000 -0.24106
v -0.08000 2.13000 -0.24938
v -0.12257 2.13000 -0.26500
v -0.15035 2.13000 -0.28606
v -0.16000 2.13000 -0.31000
v -0.15035 2.13000 -0.33394
v -0.12257 2.13000 -0.35500
v -0.08000 2.13000 -0.37062
v -0.02778 2.13000 -0.37894
v 0.02778 2.13000 -0.37894
v 0.08000 2.13000 -0.37062
v 0.12257 2.13000 -0.35500
v 0.15035 2.13000 -0.33394
v 0.14782 2.09556 -0.31000
v 0.13891 2.09556 -0.28788
v 0.11324 2.09556 -0.26843
v 0.07391 2.09556 -0.25399
v 0.02567 2.09556 -0.24631
v -0.02567 2.09556 -0.24631
v -0.07391 2.09556 -0.25399
v -0.11324 2.09556 -0.26843
v -0.13891 2.09556 -0.28788
v -0.14782 2.09556 -0.31000
v -0.13891 2.09556 -0.33212
v -0.11324 2.09556 -0.35157
v -0.07391 2.09556 -0.36601
v -0.02567 2.09556 -0.37369
v 0.02567 2.09556 -0.37369
v 0.07391 2.09556 -0.36601
v 0.11324 2.09556 -0.35157
v 0.13891 2.09556 -0.33212
v 0.11314 2.06636 -0.31000
v 0.10631 2.06636 -0.29307
v 0.08667 2.06636 -0.27818
v 0.05657 2.06636 -0.26713
v 0.01965 2.06636 -0.26125
v -0.01965 2.06636 -0.26125
v -0.05657 2.06636 -0.26713
v -0.08667 2.06636 -0.27818
v -0.10631 2.06636 -0.29307
v -0.11314 2.06636 -0.31000
v -0.10631 2.06636 -0.32693
v -0.08667 2.06636 -0.34182
v -0.05657 2.06636 -0.35287
v -0.01965 2.06636 -0.35875
v 0.01965 2.06636 -0.35875
v 0.05657 2.06636 -0.35287
v 0.08667 2.06636 -0.34182
v 0.10631 2.06636 -0.32693
v 0.06123 2.04685 -0.31000
v 0.05754 2.04685 -0.30084
v 0.04690 2.04685 -0.29278
v 0.03061 2.04685 -0.28680
v 0.01063 2.04685 -0.28362
v -0.01063 2.04685 -0.28362
v -0.03061 2.04685 -0.28680
v -0.04690 2.04685 -0.29278
v -0.05754 2.04685 -0.30084
v -0.06123 2.04685 -0.31000
v -0.05754 2.04685 -0.31916
v -0.04690 2.04685 -0.32722
v -0.03061 2.04685 -0.33320
v -0.01063 2.04685 -0.33638
v 0.01063 2.04685 -0.33638
v 0.03061 2.04685 -0.33320
v 0.04690 2.04685 -0.32722
v 0.05754 2.04685 -0.31916
v 0.00000 2.04000 -0.31000
v 0.00000 2.04000 -0.31000
v 0.00000 2.04000 -0.31000
v 0.00000 2.04000 -0.31000
v 0.00000 2.04000 -0.31000
v -0.00000 2.04000 -0.31000
v -0.00000 2.04000 -0.31000
v -0.00000 2.04000 -0.31000
v -0.00000 2.04000 -0.31000
v -0.00000 2.04000 -0.31000
v -0.00000 2.04000 -0.31000
v -0.00000 2.04000 -0.31000
v -0.00000 2.04000 -0.31000
v -0.00000 2.04000 -0.31000
v 0.00000 2.04000 -0.31000
v 0.00000 2.04000 -0.31000
v 0.00000 2.04000 -0.31000
v 0.00000 2.04000 -0.31000
v 0.00000 2.19800 -0.38500
v 0.00000 2.19800 -0.38500
v 0.00000 2.19800 -0.38500
v 0.00000 2.19800 -0.38500
v 0.00000 2.19800 -0.38500
v 0.00000 2.19800 -0.38500
v 0.00000 2.19800 -0.38500
v 0.00000 2.19800 -0.38500
v 0.00000 2.19800 -0.38500
v 0.00000 2.19800 -0.38500
v 0.00000 2.19800 -0.38500
v 0.00000 2.19800 -0.38500
v 0.02250 2.19425 -0.38500
v 0.01949 2.19425 -0.38050
v 0.01125 2.19425 -0.37721
v 0.00000 2.19425 -0.37600
v -0.01125 2.19425 -0.37721
v -0.01949 2.19425 -0.38050
v -0.02250 2.19425 -0.38500
v -0.01949 2.19425 -0.38950
v -0.01125 2.19425 -0.39279
v -0.00000 2.19425 -0.39400
v 0.01125 2.19425 -0.39279
v 0.01949 2.19425 -0.38950
v 0.03897 2.18400 -0.38500
v 0.03375 2.18400 -0.37721
v 0.01949 2.18400 -0.37150
v 0.00000 2.18400 -0.36941
v -0.01949 2.18400 -0.37150
v -0.03375 2.18400 -0.37721
v -0.03897 2.18400 -0.38500
v -0.03375 2.18400 -0.39279
v -0.01949 2.18400 -0.39850
v -0.00000 2.18400 -0.40059
v 0.01949 2.18400 -0.39850
v 0.03375 2.18400 -0.39279
v 0.04500 2.17000 -0.38500
v 0.03897 2.17000 -0.37600
v 0.02250 2.17000 -0.36941
v 0.00000 2.17000 -0.36700
v -0.02250 2.17000 -0.36941
v -0.03897 2.17000 -0.37600
v -0.04500 2.17000 -0.38500
v -0.03897 2.17000 -0.39400
v -0.02250 2.17000 -0.40059
v -0.00000 2.17000 -0.40300
v 0.02250 2.17000 -0.40059
v 0.03897 2.17000 -0.39400
v 0.03897 2.15600 -0.38500
v 0.03375 2.15600 -0.37721
v 0.01949 2.15600 -0.37150
v 0.00000 2.15600 -0.36941
v -0.01949 2.15600 -0.37150
v -0.03375 2.15600 -0.37721
v -0.03897 2.15600 -0.38500
v -0.03375 2.15600 -0.39279
v -0.01949 2.15600 -0.39850
v -0.00000 2.15600 -0.40059
v 0.01949 2.15600 -0.39850
v 0.03375 2.15600 -0.39279
v 0.02250 2.14575 -0.38500
v 0.01949 2.14575 -0.38050
v 0.01125 2.14575 -0.37721
v 0.00000 2.14575 -0.37600
v -0.01125 2.14575 -0.37721
v -0.01949 2.14575 -0.38050
v -0.02250 2.14575 -0.38500
v -0.01949 2.14575 -0.38950
v -0.01125 2.14575 -0.39279
v -0.00000 2.14575 -0.39400
v 0.01125 2.14575 -0.39279
v 0.01949 2.14575 -0.38950
v 0.00000 2.14200 -0.38500
v 0.00000 2.14200 -0.38500
v 0.00000 2.14200 -0.38500
v 0.00000 2.14200 -0.38500
v -0.00000 2.14200 -0.38500
v -0.00000 2.14200 -0.38500
v -0.00000 2.14200 -0.38500
v -0.00000 2.14200 -0.38500
v -0.00000 2.14200 -0.38500
v -0.00000 2.14200 -0.38500
v 0.00000 2.14200 -0.38500
v 0.00000 2.14200 -0.38500
v -0.13000 2.35000 -0.29500
v -0.13000 2.35000 -0.29500
v -0.13000 2.35000 -0.29500
v -0.13000 2.35000 -0.29500
v -0.13000 2.35000 -0.29500
v -0.13000 2.35000 -0.29500
v -0.13000 2.35000 -0.29500
v -0.13000 2.35000 -0.29500
v -0.13000 2.35000 -0.29500
v -0.13000 2.35000 -0.29500
v -0.13000 2.35000 -0.29500
v -0.13000 2.35000 -0.29500
v -0.10250 2.33928 -0.29500
v -0.10618 2.33928 -0.29125
v -0.11625 2.33928 -0.28850
v -0.13000 2.33928 -0.28750
v -0.14375 2.33928 -0.28850
v -0.15382 2.33928 -0.29125
v -0.15750 2.33928 -0.29500
v -0.15382 2.33928 -0.29875
v -0.14375 2.33928 -0.30150
v -0.13000 2.33928 -0.30250
v -0.11625 2.33928 -0.30150
v -0.10618 2.33928 -0.29875
v -0.08237 2.31000 -0.29500
v -0.08875 2.31000 -0.28850
v -0.10618 2.31000 -0.28375
v -0.13000 2.31000 -0.28201
v -0.15382 2.31000 -0.28375
v -0.17125 2.31000 -0.28850
v -0.17763 2.31000 -0.29500
v -0.17125 2.31000 -0.30150
v -0.15382 2.31000 -0.30625
v -0.13000 2.31000 -0.30799
v -0.10618 2.31000 -0.30625
v -0.08875 2.31000 -0.30150
v -0.07500 2.27000 -0.29500
v -0.08237 2.27000 -0.28750
v -0.10250 2.27000 -0.28201
v -0.13000 2.27000 -0.28000
v -0.15750 2.27000 -0.28201
v -0.17763 2.27000 -0.28750
v -0.18500 2.27000 -0.29500
v -0.17763 2.27000 -0.30250
v -0.15750 2.27000 -0.30799
v -0.13000 2.27000 -0.31000
v -0.10250 2.27000 -0.30799
v -0.08237 2.27000 -0.30250
v -0.08237 2.23000 -0.29500
v -0.08875 2.23000 -0.28850
v -0.10618 2.23000 -0.28375
v -0.13000 2.23000 -0.28201
v -0.15382 2.23000 -0.28375
v -0.17125 2.23000 -0.28850
v -0.17763 2.23000 -0.29500
v -0.17125 2.23000 -0.30150
v -0.15382 2.23000 -0.30625
v -0.13000 2.23000 -0.30799
v -0.10618 2.23000 -0.30625
v -0.08875 2.23000 -0.30150
v -0.10250 2.20072 -0.29500
v -0.10618 2.20072 -0.29125
v -0.11625 2.20072 -0.28850
v -0.13000 2.20072 -0.28750
v -0.14375 2.20072 -0.28850
v -0.15382 2.20072 -0.29125
v -0.15750 2.20072 -0.29500
v -0.15382 2.20072 -0.29875
v -0.14375 2.20072 -0.30150
v -0.13000 2.20072 -0.30250
v -0.11625 2.20072 -0.30150
v -0.10618 2.20072 -0.29875
v -0.13000 2.19000 -0.29500
v -0.13000 2.19000 -0.29500
v -0.13000 2.19000 -0.29500
v -0.13000 2.19000 -0.29500
v -0.13000 2.19000 -0.29500
v -0.13000 2.19000 -0.29500
v -0.13000 2.19000 -0.29500
v -0.13000 2.19000 -0.29500
v -0.13000 2.19000 -0.29500
v -0.13000 2.19000 -0.29500
v -0.13000 2.19000 -0.29500
v -0.13000 2.19000 -0.29500
v 0.13000 2.35000 -0.29500
v 0.13000 2.35000 -0.29500
v 0.13000 2.35000 -0.29500
v 0.13000 2.35000 -0.29500
v 0.13000 2.35000 -0.29500
v 0.13000 2.35000 -0.29500
v 0.13000 2.35000 -0.29500
v 0.13000 2.35000 -0.29500
v 0.13000 2.35000 -0.29500
v 0.13000 2.35000 -0.29500
v 0.13000 2.35000 -0.29500
v 0.13000 2.35000 -0.29500
v 0.15750 2.33928 -0.29500
v 0.15382 2.33928 -0.29125
v 0.14375 2.33928 -0.28850
v 0.13000 2.33928 -0.28750
v 0.11625 2.33928 -0.28850
v 0.10618 2.33928 -0.29125
v 0.10250 2.33928 -0.29500
v 0.10618 2.33928 -0.29875
v 0.11625 2.33928 -0.30150
v 0.13000 2.33928 -0.30250
v 0.14375 2.33928 -0.30150
v 0.15382 2.33928 -0.29875
v 0.17763 2.31000 -0.29500
v 0.17125 2.31000 -0.28850
v 0.15382 2.31000 -0.28375
v 0.13000 2.31000 -0.28201
v 0.10618 2.31000 -0.28375
v 0.08875 2.31000 -0.28850
v 0.08237 2.31000 -0.29500
v 0.08875 2.31000 -0.30150
v 0.10618 2.31000 -0.30625
v 0.13000 2.31000 -0.30799
v 0.15382 2.31000 -0.30625
v 0.17125 2.31000 -0.30150
v 0.18500 2.27000 -0.29500
v 0.17763 2.27000 -0.28750
v 0.15750 2.27000 -0.28201
v 0.13000 2.27000 -0.28000
v 0.10250 2.27000 -0.28201
v 0.08237 2.27000 -0.28750
v 0.07500 2.27000 -0.29500
v 0.08237 2.27000 -0.30250
v 0.10250 2.27000 -0.30799
v 0.13000 2.27000 -0.31000
v 0.15750 2.27000 -0.30799
v 0.17763 2.27000 -0.30250
v 0.17763 2.23000 -0.29500
v 0.17125 2.23000 -0.28850
v 0.15382 2.23000 -0.28375
v 0.13000 2.23000 -0.28201
v 0.10618 2.23000 -0.28375
v 0.08875 2.23000 -0.28850
v 0.08237 2.23000 -0.29500
v 0.08875 2.23000 -0.30150
v 0.10618 2.23000 -0.30625
v 0.13000 2.23000 -0.30799
v 0.15382 2.23000 -0.30625
v 0.17125 2.23000 -0.30150
v 0.15750 2.20072 -0.29500
v 0.15382 2.20072 -0.29125
v 0.14375 2.20072 -0.28850
v 0.13000 2.20072 -0.28750
v 0.11625 2.20072 -0.28850
v 0.10618 2.20072 -0.29125
v 0.10250 2.20072 -0.29500
v 0.10618 2.20072 -0.29875
v 0.11625 2.20072 -0.30150
v 0.13000 2.20072 -0.30250
v 0.14375 2.20072 -0.30150
v 0.15382 2.20072 -0.29875
v 0.13000 2.19000 -0.29500
v 0.13000 2.19000 -0.29500
v 0.13000 2.19000 -0.29500
v 0.13000 2.19000 -0.29500
v 0.13000 2.19000 -0.29500
v 0.13000 2.19000 -0.29500
v 0.13000 2.19000 -0.29500
v 0.13000 2.19000 -0.29500
v 0.13000 2.19000 -0.29500
v 0.13000 2.19000 -0.29500
v 0.13000 2.19000 -0.29500
v 0.13000 2.19000 -0.29500
v -0.13000 2.31500 -0.31200
v -0.13000 2.31500 -0.31200
v -0.13000 2.31500 -0.31200
v -0.13000 2.31500 -0.31200
v -0.13000 2.31500 -0.31200
v -0.13000 2.31500 -0.31200
v -0.13000 2.31500 -0.31200
v -0.13000 2.31500 -0.31200
v -0.13000 2.31500 -0.31200
v -0.13000 2.31500 -0.31200
v -0.11531 2.30641 -0.31200
v -0.11811 2.30641 -0.30924
v -0.12546 2.30641 -0.30753
v -0.13454 2.30641 -0.30753
v -0.14189 2.30641 -0.30924
v -0.14469 2.30641 -0.31200
v -0.14189 2.30641 -0.31476
v -0.13454 2.30641 -0.31647
v -0.12546 2.30641 -0.31647
v -0.11811 2.30641 -0.31476
v -0.10622 2.28391 -0.31200
v -0.11076 2.28391 -0.30753
v -0.12265 2.28391 -0.30476
v -0.13735 2.28391 -0.30476
v -0.14924 2.28391 -0.30753
v -0.15378 2.28391 -0.31200
v -0.14924 2.28391 -0.31647
v -0.13735 2.28391 -0.31924
v -0.12265 2.28391 -0.31924
v -0.11076 2.28391 -0.31647
v -0.10622 2.25609 -0.31200
v -0.11076 2.25609 -0.30753
v -0.12265 2.25609 -0.30476
v -0.13735 2.25609 -0.30476
v -0.14924 2.25609 -0.30753
v -0.15378 2.25609 -0.31200
v -0.14924 2.25609 -0.31647
v -0.13735 2.25609 -0.31924
v -0.12265 2.25609 -0.31924
v -0.11076 2.25609 -0.31647
v -0.11531 2.23359 -0.31200
v -0.11811 2.23359 -0.30924
v -0.12546 2.23359 -0.30753
v -0.13454 2.23359 -0.30753
v -0.14189 2.23359 -0.30924
v -0.14469 2.23359 -0.31200
v -0.14189 2.23359 -0.31476
v -0.13454 2.23359 -0.31647
v -0.12546 2.23359 -0.31647
v -0.11811 2.23359 -0.31476
v -0.13000 2.22500 -0.31200
v -0.13000 2.22500 -0.31200
v -0.13000 2.22500 -0.31200
v -0.13000 2.22500 -0.31200
v -0.13000 2.22500 -0.31200
v -0.13000 2.22500 -0.31200
v -0.13000 2.22500 -0.31200
v -0.13000 2.22500 -0.31200
v -0.13000 2.22500 -0.31200
v -0.13000 2.22500 -0.31200
v 0.13000 2.31500 -0.31200
v 0.13000 2.31500 -0.31200
v 0.13000 2.31500 -0.31200
v 0.13000 2.31500 -0.31200
v 0.13000 2.31500 -0.31200
v 0.13000 2.31500 -0.31200
v 0.13000 2.31500 -0.31200
v 0.13000 2.31500 -0.31200
v 0.13000 2.31500 -0.31200
v 0.13000 2.31500 -0.31200
v 0.14469 2.30641 -0.31200
v 0.14189 2.30641 -0.30924
v 0.13454 2.30641 -0.30753
v 0.12546 2.30641 -0.30753
v 0.11811 2.30641 -0.30924
v 0.11531 2.30641 -0.31200
v 0.11811 2.30641 -0.31476
v 0.12546 2.30641 -0.31647
v 0.13454 2.30641 -0.31647
v 0.14189 2.30641 -0.31476
v 0.15378 2.28391 -0.31200
v 0.14924 2.28391 -0.30753
v 0.13735 2.28391 -0.30476
v 0.12265 2.28391 -0.30476
v 0.11076 2.28391 -0.30753
v 0.10622 2.28391 -0.31200
v 0.11076 2.28391 -0.31647
v 0.12265 2.28391 -0.31924
v 0.13735 2.28391 -0.31924
v 0.14924 2.28391 -0.31647
v 0.15378 2.25609 -0.31200
v 0.14924 2.25609 -0.30753
v 0.13735 2.25609 -0.30476
v 0.12265 2.25609 -0.30476
v 0.11076 2.25609 -0.30753
v 0.10622 2.25609 -0.31200
v 0.11076 2.25609 -0.31647
v 0.12265 2.25609 -0.31924
v 0.13735 2.25609 -0.31924
v 0.14924 2.25609 -0.31647
v 0.14469 2.23359 -0.31200
v 0.14189 2.23359 -0.30924
v 0.13454 2.23359 -0.30753
v 0.12546 2.23359 -0.30753
v 0.11811 2.23359 -0.30924
v 0.11531 2.23359 -0.31200
v 0.11811 2.23359 -0.31476
v 0.12546 2.23359 -0.31647
v 0.13454 2.23359 -0.31647
v 0.14189 2.23359 -0.31476
v 0.13000 2.22500 -0.31200
v 0.13000 2.22500 -0.31200
v 0.13000 2.22500 -0.31200
v 0.13000 2.22500 -0.31200
v 0.13000 2.22500 -0.31200
v 0.13000 2.22500 -0.31200
v 0.13000 2.22500 -0.31200
v 0.13000 2.22500 -0.31200
v 0.13000 2.22500 -0.31200
v 0.13000 2.22500 -0.31200
v -0.26675 3.36462 0.00000
v -0.26675 3.36462 0.00000
v -0.26675 3.36462 0.00000
v -0.26675 3.36462 0.00000
v -0.26675 3.36462 0.00000
v -0.26675 3.36462 0.00000
v -0.26675 3.36462 0.00000
v -0.26675 3.36462 0.00000
v -0.26675 3.36462 0.00000
v -0.26675 3.36462 0.00000
v -0.26675 3.36462 0.00000
v -0.26675 3.36462 0.00000
v -0.26675 3.36462 0.00000
v -0.26675 3.36462 0.00000
v -0.26675 3.36462 0.00000
v -0.26675 3.36462 0.00000
v -0.22301 3.32850 0.00000
v -0.22590 3.32810 0.00659
v -0.23411 3.32694 0.01218
v -0.24641 3.32521 0.01591
v -0.26091 3.32316 0.01722
v -0.27541 3.32112 0.01591
v -0.28770 3.31939 0.01218
v -0.29592 3.31823 0.00659
v -0.29880 3.31782 0.00000
v -0.29592 3.31823 -0.00659
v -0.28770 3.31939 -0.01218
v -0.27541 3.32112 -0.01591
v -0.26091 3.32316 -0.01722
v -0.24641 3.32521 -0.01591
v -0.23411 3.32694 -0.01218
v -0.22590 3.32810 -0.00659
v -0.17425 3.21497 0.00000
v -0.17958 3.21422 0.01218
v -0.19476 3.21208 0.02250
v -0.21747 3.20888 0.02940
v -0.24427 3.20510 0.03182
v -0.27106 3.20133 0.02940
v -0.29378 3.19813 0.02250
v -0.30896 3.19599 0.01218
v -0.31429 3.19524 0.00000
v -0.30896 3.19599 -0.01218
v -0.29378 3.19813 -0.02250
v -0.27106 3.20133 -0.02940
v -0.24427 3.20510 -0.03182
v -0.21747 3.20888 -0.02940
v -0.19476 3.21208 -0.02250
v -0.17958 3.21422 -0.01218
v -0.12789 3.04131 0.00000
v -0.13485 3.04033 0.01591
v -0.15468 3.03753 0.02940
v -0.18436 3.03335 0.03841
v -0.21937 3.02842 0.04157
v -0.25438 3.02348 0.03841
v -0.28406 3.01930 0.02940
v -0.30389 3.01651 0.01591
v -0.31085 3.01552 0.00000
v -0.30389 3.01651 -0.01591
v -0.28406 3.01930 -0.02940
v -0.25438 3.02348 -0.03841
v -0.21937 3.02842 -0.04157
v -0.18436 3.03335 -0.03841
v -0.15468 3.03753 -0.02940
v -0.13485 3.04033 -0.01591
v -0.09098 2.83395 0.00000
v -0.09852 2.83289 0.01722
v -0.11998 2.82987 0.03182
v -0.15211 2.82534 0.04157
v -0.19000 2.82000 0.04500
v -0.22789 2.81466 0.04157
v -0.26002 2.81013 0.03182
v -0.28148 2.80711 0.01722
v -0.28902 2.80605 0.00000
v -0.28148 2.80711 -0.01722
v -0.26002 2.81013 -0.03182
v -0.22789 2.81466 -0.04157
v -0.19000 2.82000 -0.04500
v -0.15211 2.82534 -0.04157
v -0.11998 2.82987 -0.03182
v -0.09852 2.83289 -0.01722
v -0.06915 2.62448 0.00000
v -0.07611 2.62349 0.01591
v -0.09594 2.62070 0.02940
v -0.12562 2.61652 0.03841
v -0.16063 2.61158 0.04157
v -0.19564 2.60665 0.03841
v -0.22532 2.60247 0.02940
v -0.24515 2.59967 0.01591
v -0.25211 2.59869 0.00000
v -0.24515 2.59967 -0.01591
v -0.22532 2.60247 -0.02940
v -0.19564 2.60665 -0.03841
v -0.16063 2.61158 -0.04157
v -0.12562 2.61652 -0.03841
v -0.09594 2.62070 -0.02940
v -0.07611 2.62349 -0.01591
v -0.06571 2.44476 0.00000
v -0.07104 2.44401 0.01218
v -0.08622 2.44187 0.02250
v -0.10894 2.43867 0.02940
v -0.13573 2.43490 0.03182
v -0.16253 2.43112 0.02940
v -0.18524 2.42792 0.02250
v -0.20042 2.42578 0.01218
v -0.20575 2.42503 0.00000
v -0.20042 2.42578 -0.01218
v -0.18524 2.42792 -0.02250
v -0.16253 2.43112 -0.02940
v -0.13573 2.43490 -0.03182
v -0.10894 2.43867 -0.02940
v -0.08622 2.44187 -0.02250
v -0.07104 2.44401 -0.01218
v -0.08120 2.32218 0.00000
v -0.08408 2.32177 0.00659
v -0.09230 2.32061 0.01218
v -0.10459 2.31888 0.01591
v -0.11909 2.31684 0.01722
v -0.13359 2.31479 0.01591
v -0.14589 2.31306 0.01218
v -0.15410 2.31190 0.00659
v -0.15699 2.31150 0.00000
v -0.15410 2.31190 -0.00659
v -0.14589 2.31306 -0.01218
v -0.13359 2.31479 -0.01591
v -0.11909 2.31684 -0.01722
v -0.10459 2.31888 -0.01591
v -0.09230 2.32061 -0.01218
v -0.08408 2.32177 -0.00659
v -0.11325 2.27538 0.00000
v -0.11325 2.27538 0.00000
v -0.11325 2.27538 0.00000
v -0.11325 2.27538 0.00000
v -0.11325 2.27538 0.00000
v -0.11325 2.27538 0.00000
v -0.11325 2.27538 0.00000
v -0.11325 2.27538 0.00000
v -0.11325 2.27538 0.00000
v -0.11325 2.27538 -0.00000
v -0.11325 2.27538 -0.00000
v -0.11325 2.27538 -0.00000
v -0.11325 2.27538 -0.00000
v -0.11325 2.27538 -0.00000
v -0.11325 2.27538 -0.00000
v -0.11325 2.27538 -0.00000
v 0.26675 3.36462 0.00000
v 0.26675 3.36462 0.00000
v 0.26675 3.36462 0.00000
v 0.26675 3.36462 0.00000
v 0.26675 3.36462 0.00000
v 0.26675 3.36462 0.00000
v 0.26675 3.36462 0.00000
v 0.26675 3.36462 0.00000
v 0.26675 3.36462 0.00000
v 0.26675 3.36462 0.00000
v 0.26675 3.36462 0.00000
v 0.26675 3.36462 0.00000
v 0.26675 3.36462 0.00000
v 0.26675 3.36462 0.00000
v 0.26675 3.36462 0.00000
v 0.26675 3.36462 0.00000
v 0.29880 3.31782 0.00000
v 0.29592 3.31823 0.00659
v 0.28770 3.31939 0.01218
v 0.27541 3.32112 0.01591
v 0.26091 3.32316 0.01722
v 0.24641 3.32521 0.01591
v 0.23411 3.32694 0.01218
v 0.22590 3.32810 0.00659
v 0.22301 3.32850 0.00000
v 0.22590 3.32810 -0.00659
v 0.23411 3.32694 -0.01218
v 0.24641 3.32521 -0.01591
v 0.26091 3.32316 -0.01722
v 0.27541 3.32112 -0.01591
v 0.28770 3.31939 -0.01218
v 0.29592 3.31823 -0.00659
v 0.31429 3.19524 0.00000
v 0.30896 3.19599 0.01218
v 0.29378 3.19813 0.02250
v 0.27106 3.20133 0.02940
v 0.24427 3.20510 0.03182
v 0.21747 3.20888 0.02940
v 0.19476 3.21208 0.02250
v 0.17958 3.21422 0.01218
v 0.17425 3.21497 0.00000
v 0.17958 3.21422 -0.01218
v 0.19476 3.21208 -0.02250
v 0.21747 3.20888 -0.02940
v 0.24427 3.20510 -0.03182
v 0.27106 3.20133 -0.02940
v 0.29378 3.19813 -0.02250
v 0.30896 3.19599 -0.01218
v 0.31085 3.01552 0.00000
v 0.30389 3.01651 0.01591
v 0.28406 3.01930 0.02940
v 0.25438 3.02348 0.03841
v 0.21937 3.02842 0.04157
v 0.18436 3.03335 0.03841
v 0.15468 3.03753 0.02940
v 0.13485 3.04033 0.01591
v 0.12789 3.04131 0.00000
v 0.13485 3.04033 -0.01591
v 0.15468 3.03753 -0.02940
v 0.18436 3.03335 -0.03841
v 0.21937 3.02842 -0.04157
v 0.25438 3.02348 -0.03841
v 0.28406 3.01930 -0.02940
v 0.30389 3.01651 -0.01591
v 0.28902 2.80605 0.00000
v 0.28148 2.80711 0.01722
v 0.26002 2.81013 0.03182
v 0.22789 2.81466 0.04157
v 0.19000 2.82000 0.04500
v 0.15211 2.82534 0.04157
v 0.11998 2.82987 0.03182
v 0.09852 2.83289 0.01722
v 0.09098 2.83395 0.00000
v 0.09852 2.83289 -0.01722
v 0.11998 2.82987 -0.03182
v 0.15211 2.82534 -0.04157
v 0.19000 2.82000 -0.04500
v 0.22789 2.81466 -0.04157
v 0.26002 2.81013 -0.03182
v 0.28148 2.80711 -0.01722
v 0.25211 2.59869 0.00000
v 0.24515 2.59967 0.01591
v 0.22532 2.60247 0.02940
v 0.19564 2.60665 0.03841
v 0.16063 2.61158 0.04157
v 0.12562 2.61652 0.03841
v 0.09594 2.62070 0.02940
v 0.07611 2.62349 0.01591
v 0.06915 2.62448 0.00000
v 0.07611 2.62349 -0.01591
v 0.09594 2.62070 -0.02940
v 0.12562 2.61652 -0.03841
v 0.16063 2.61158 -0.04157
v 0.19564 2.60665 -0.03841
v 0.22532 2.60247 -0.02940
v 0.24515 2.59967 -0.01591
v 0.20575 2.42503 0.00000
v 0.20042 2.42578 0.01218
v 0.18524 2.42792 0.02250
v 0.16253 2.43112 0.02940
v 0.13573 2.43490 0.03182
v 0.10894 2.43867 0.02940
v 0.08622 2.44187 0.02250
v 0.07104 2.44401 0.01218
v 0.06571 2.44476 0.00000
v 0.07104 2.44401 -0.01218
v 0.08622 2.44187 -0.02250
v 0.10894 2.43867 -0.02940
v 0.13573 2.43490 -0.03182
v 0.16253 2.43112 -0.02940
v 0.18524 2.42792 -0.02250
v 0.20042 2.42578 -0.01218
v 0.15699 2.31150 0.00000
v 0.15410 2.31190 0.00659
v 0.14589 2.31306 0.01218
v 0.13359 2.31479 0.01591
v 0.11909 2.31684 0.01722
v 0.10459 2.31888 0.01591
v 0.09230 2.32061 0.01218
v 0.08408 2.32177 0.00659
v 0.08120 2.32218 0.00000
v 0.08408 2.32177 -0.00659
v 0.09230 2.32061 -0.01218
v 0.10459 2.31888 -0.01591
v 0.11909 2.31684 -0.01722
v 0.13359 2.31479 -0.01591
v 0.14589 2.31306 -0.01218
v 0.15410 2.31190 -0.00659
v 0.11325 2.27538 0.00000
v 0.11325 2.27538 0.00000
v 0.11325 2.27538 0.00000
v 0.11325 2.27538 0.00000
v 0.11325 2.27538 0.00000
v 0.11325 2.27538 0.00000
v 0.11325 2.27538 0.00000
v 0.11325 2.27538 0.00000
v 0.11325 2.27538 0.00000
v 0.11325 2.27538 -0.00000
v 0.11325 2.27538 -0.00000
v 0.11325 2.27538 -0.00000
v 0.11325 2.27538 -0.00000
v 0.11325 2.27538 -0.00000
v 0.11325 2.27538 -0.00000
v 0.11325 2.27538 -0.00000
v -0.25000 3.24579 -0.04500
v -0.25000 3.24579 -0.04500
v -0.25000 3.24579 -0.04500
v -0.25000 3.24579 -0.04500
v -0.25000 3.24579 -0.04500
v -0.25000 3.24579 -0.04500
v -0.25000 3.24579 -0.04500
v -0.25000 3.24579 -0.04500
v -0.25000 3.24579 -0.04500
v -0.25000 3.24579 -0.04500
v -0.25000 3.24579 -0.04500
v -0.25000 3.24579 -0.04500
v -0.21473 3.19258 -0.04500
v -0.21838 3.19207 -0.04050
v -0.22835 3.19067 -0.03721
v -0.24196 3.18875 -0.03600
v -0.25558 3.18683 -0.03721
v -0.26555 3.18542 -0.04050
v -0.26920 3.18491 -0.04500
v -0.26555 3.18542 -0.04950
v -0.25558 3.18683 -0.05279
v -0.24196 3.18875 -0.05400
v -0.22835 3.19067 -0.05279
v -0.21838 3.19207 -0.04950
v -0.17284 3.03954 -0.04500
v -0.17916 3.03865 -0.03721
v -0.19642 3.03622 -0.03150
v -0.22000 3.03290 -0.02941
v -0.24358 3.02957 -0.03150
v -0.26085 3.02714 -0.03721
v -0.26717 3.02625 -0.04500
v -0.26085 3.02714 -0.05279
v -0.24358 3.02957 -0.05850
v -0.22000 3.03290 -0.06059
v -0.19642 3.03622 -0.05850
v -0.17916 3.03865 -0.05279
v -0.13554 2.82767 -0.04500
v -0.14283 2.82665 -0.03600
v -0.16277 2.82384 -0.02941
v -0.19000 2.82000 -0.02700
v -0.21723 2.81616 -0.02941
v -0.23717 2.81335 -0.03600
v -0.24446 2.81233 -0.04500
v -0.23717 2.81335 -0.05400
v -0.21723 2.81616 -0.06059
v -0.19000 2.82000 -0.06300
v -0.16277 2.82384 -0.06059
v -0.14283 2.82665 -0.05400
v -0.11283 2.61375 -0.04500
v -0.11915 2.61286 -0.03721
v -0.13642 2.61043 -0.03150
v -0.16000 2.60710 -0.02941
v -0.18358 2.60378 -0.03150
v -0.20084 2.60135 -0.03721
v -0.20716 2.60046 -0.04500
v -0.20084 2.60135 -0.05279
v -0.18358 2.60378 -0.05850
v -0.16000 2.60710 -0.06059
v -0.13642 2.61043 -0.05850
v -0.11915 2.61286 -0.05279
v -0.11080 2.45509 -0.04500
v -0.11445 2.45458 -0.04050
v -0.12442 2.45317 -0.03721
v -0.13804 2.45125 -0.03600
v -0.15165 2.44933 -0.03721
v -0.16162 2.44793 -0.04050
v -0.16527 2.44742 -0.04500
v -0.16162 2.44793 -0.04950
v -0.15165 2.44933 -0.05279
v -0.13804 2.45125 -0.05400
v -0.12442 2.45317 -0.05279
v -0.11445 2.45458 -0.04950
v -0.13000 2.39421 -0.04500
v -0.13000 2.39421 -0.04500
v -0.13000 2.39421 -0.04500
v -0.13000 2.39421 -0.04500
v -0.13000 2.39421 -0.04500
v -0.13000 2.39421 -0.04500
v -0.13000 2.39421 -0.04500
v -0.13000 2.39421 -0.04500
v -0.13000 2.39421 -0.04500
v -0.13000 2.39421 -0.04500
v -0.13000 2.39421 -0.04500
v -0.13000 2.39421 -0.04500
v 0.25000 3.24579 -0.04500
v 0.25000 3.24579 -0.04500
v 0.25000 3.24579 -0.04500
v 0.25000 3.24579 -0.04500
v 0.25000 3.24579 -0.04500
v 0.25000 3.24579 -0.04500
v 0.25000 3.24579 -0.04500
v 0.25000 3.24579 -0.04500
v 0.25000 3.24579 -0.04500
v 0.25000 3.24579 -0.04500
v 0.25000 3.24579 -0.04500
v 0.25000 3.24579 -0.04500
v 0.26920 3.18491 -0.04500
v 0.26555 3.18542 -0.04050
v 0.25558 3.18683 -0.03721
v 0.24196 3.18875 -0.03600
v 0.22835 3.19067 -0.03721
v 0.21838 3.19207 -0.04050
v 0.21473 3.19258 -0.04500
v 0.21838 3.19207 -0.04950
v 0.22835 3.19067 -0.05279
v 0.24196 3.18875 -0.05400
v 0.25558 3.18683 -0.05279
v 0.26555 3.18542 -0.04950
v 0.26717 3.02625 -0.04500
v 0.26085 3.02714 -0.03721
v 0.24358 3.02957 -0.03150
v 0.22000 3.03290 -0.02941
v 0.19642 3.03622 -0.03150
v 0.17916 3.03865 -0.03721
v 0.17284 3.03954 -0.04500
v 0.17916 3.03865 -0.05279
v 0.19642 3.03622 -0.05850
v 0.22000 3.03290 -0.06059
v 0.24358 3.02957 -0.05850
v 0.26085 3.02714 -0.05279
v 0.24446 2.81233 -0.04500
v 0.23717 2.81335 -0.03600
v 0.21723 2.81616 -0.02941
v 0.19000 2.82000 -0.02700
v 0.16277 2.82384 -0.02941
v 0.14283 2.82665 -0.03600
v 0.13554 2.82767 -0.04500
v 0.14283 2.82665 -0.05400
v 0.16277 2.82384 -0.06059
v 0.19000 2.82000 -0.06300
v 0.21723 2.81616 -0.06059
v 0.23717 2.81335 -0.05400
v 0.20716 2.60046 -0.04500
v 0.20084 2.60135 -0.03721
v 0.18358 2.60378 -0.03150
v 0.16000 2.60710 -0.02941
v 0.13642 2.61043 -0.03150
v 0.11915 2.61286 -0.03721
v 0.11283 2.61375 -0.04500
v 0.11915 2.61286 -0.05279
v 0.13642 2.61043 -0.05850
v 0.16000 2.60710 -0.06059
v 0.18358 2.60378 -0.05850
v 0.20084 2.60135 -0.05279
v 0.16527 2.44742 -0.04500
v 0.16162 2.44793 -0.04050
v 0.15165 2.44933 -0.03721
v 0.13804 2.45125 -0.03600
v 0.12442 2.45317 -0.03721
v 0.11445 2.45458 -0.04050
v 0.11080 2.45509 -0.04500
v 0.11445 2.45458 -0.04950
v 0.12442 2.45317 -0.05279
v 0.13804 2.45125 -0.05400
v 0.15165 2.44933 -0.05279
v 0.16162 2.44793 -0.04950
v 0.13000 2.39421 -0.04500
v 0.13000 2.39421 -0.04500
v 0.13000 2.39421 -0.04500
v 0.13000 2.39421 -0.04500
v 0.13000 2.39421 -0.04500
v 0.13000 2.39421 -0.04500
v 0.13000 2.39421 -0.04500
v 0.13000 2.39421 -0.04500
v 0.13000 2.39421 -0.04500
v 0.13000 2.39421 -0.04500
v 0.13000 2.39421 -0.04500
v 0.13000 2.39421 -0.04500
v -0.78000 1.79500 0.00000
v -0.32000 1.79500 0.00000
v -0.78000 1.78929 0.02679
v -0.32000 1.78929 0.02679
v -0.78000 1.77303 0.04950
v -0.32000 1.77303 0.04950
v -0.78000 1.74870 0.06467
v -0.32000 1.74870 0.06467
v -0.78000 1.72000 0.07000
v -0.32000 1.72000 0.07000
v -0.78000 1.69130 0.06467
v -0.32000 1.69130 0.06467
v -0.78000 1.66697 0.04950
v -0.32000 1.66697 0.04950
v -0.78000 1.65071 0.02679
v -0.32000 1.65071 0.02679
v -0.78000 1.64500 0.00000
v -0.32000 1.64500 0.00000
v -0.78000 1.65071 -0.02679
v -0.32000 1.65071 -0.02679
v -0.78000 1.66697 -0.04950
v -0.32000 1.66697 -0.04950
v -0.78000 1.69130 -0.06467
v -0.32000 1.69130 -0.06467
v -0.78000 1.72000 -0.07000
v -0.32000 1.72000 -0.07000
v -0.78000 1.74870 -0.06467
v -0.32000 1.74870 -0.06467
v -0.78000 1.77303 -0.04950
v -0.32000 1.77303 -0.04950
v -0.78000 1.78929 -0.02679
v -0.32000 1.78929 -0.02679
v -1.26000 1.78500 0.00000
v -0.78000 1.78500 0.00000
v -1.26000 1.78005 0.02296
v -0.78000 1.78005 0.02296
v -1.26000 1.76596 0.04243
v -0.78000 1.76596 0.04243
v -1.26000 1.74487 0.05543
v -0.78000 1.74487 0.05543
v -1.26000 1.72000 0.06000
v -0.78000 1.72000 0.06000
v -1.26000 1.69513 0.05543
v -0.78000 1.69513 0.05543
v -1.26000 1.67404 0.04243
v -0.78000 1.67404 0.04243
v -1.26000 1.65995 0.02296
v -0.78000 1.65995 0.02296
v -1.26000 1.65500 0.00000
v -0.78000 1.65500 0.00000
v -1.26000 1.65995 -0.02296
v -0.78000 1.65995 -0.02296
v -1.26000 1.67404 -0.04243
v -0.78000 1.67404 -0.04243
v -1.26000 1.69513 -0.05543
v -0.78000 1.69513 -0.05543
v -1.26000 1.72000 -0.06000
v -0.78000 1.72000 -0.06000
v -1.26000 1.74487 -0.05543
v -0.78000 1.74487 -0.05543
v -1.26000 1.76596 -0.04243
v -0.78000 1.76596 -0.04243
v -1.26000 1.78005 -0.02296
v -0.78000 1.78005 -0.02296
v 0.32000 1.79500 0.00000
v 0.78000 1.79500 0.00000
v 0.32000 1.78929 0.02679
v 0.78000 1.78929 0.02679
v 0.32000 1.77303 0.04950
v 0.78000 1.77303 0.04950
v 0.32000 1.74870 0.06467
v 0.78000 1.74870 0.06467
v 0.32000 1.72000 0.07000
v 0.78000 1.72000 0.07000
v 0.32000 1.69130 0.06467
v 0.78000 1.69130 0.06467
v 0.32000 1.66697 0.04950
v 0.78000 1.66697 0.04950
v 0.32000 1.65071 0.02679
v 0.78000 1.65071 0.02679
v 0.32000 1.64500 0.00000
v 0.78000 1.64500 0.00000
v 0.32000 1.65071 -0.02679
v 0.78000 1.65071 -0.02679
v 0.32000 1.66697 -0.04950
v 0.78000 1.66697 -0.04950
v 0.32000 1.69130 -0.06467
v 0.78000 1.69130 -0.06467
v 0.32000 1.72000 -0.07000
v 0.78000 1.72000 -0.07000
v 0.32000 1.74870 -0.06467
v 0.78000 1.74870 -0.06467
v 0.32000 1.77303 -0.04950
v 0.78000 1.77303 -0.04950
v 0.32000 1.78929 -0.02679
v 0.78000 1.78929 -0.02679
v 0.78000 1.78500 0.00000
v 1.26000 1.78500 0.00000
v 0.78000 1.78005 0.02296
v 1.26000 1.78005 0.02296
v 0.78000 1.76596 0.04243
v 1.26000 1.76596 0.04243
v 0.78000 1.74487 0.05543
v 1.26000 1.74487 0.05543
v 0.78000 1.72000 0.06000
v 1.26000 1.72000 0.06000
v 0.78000 1.69513 0.05543
v 1.26000 1.69513 0.05543
v 0.78000 1.67404 0.04243
v 1.26000 1.67404 0.04243
v 0.78000 1.65995 0.02296
v 1.26000 1.65995 0.02296
v 0.78000 1.65500 0.00000
v 1.26000 1.65500 0.00000
v 0.78000 1.65995 -0.02296
v 1.26000 1.65995 -0.02296
v 0.78000 1.67404 -0.04243
v 1.26000 1.67404 -0.04243
v 0.78000 1.69513 -0.05543
v 1.26000 1.69513 -0.05543
v 0.78000 1.72000 -0.06000
v 1.26000 1.72000 -0.06000
v 0.78000 1.74487 -0.05543
v 1.26000 1.74487 -0.05543
v 0.78000 1.76596 -0.04243
v 1.26000 1.76596 -0.04243
v 0.78000 1.78005 -0.02296
v 1.26000 1.78005 -0.02296
v -1.42000 1.79500 0.00000
v -1.20000 1.79500 0.00000
v -1.42000 1.78757 0.02603
v -1.20000 1.78757 0.02603
v -1.42000 1.76676 0.04691
v -1.20000 1.76676 0.04691
v -1.42000 1.73669 0.05850
v -1.20000 1.73669 0.05850
v -1.42000 1.70331 0.05850
v -1.20000 1.70331 0.05850
v -1.42000 1.67324 0.04691
v -1.20000 1.67324 0.04691
v -1.42000 1.65243 0.02603
v -1.20000 1.65243 0.02603
v -1.42000 1.64500 0.00000
v -1.20000 1.64500 0.00000
v -1.42000 1.65243 -0.02603
v -1.20000 1.65243 -0.02603
v -1.42000 1.67324 -0.04691
v -1.20000 1.67324 -0.04691
v -1.42000 1.70331 -0.05850
v -1.20000 1.70331 -0.05850
v -1.42000 1.73669 -0.05850
v -1.20000 1.73669 -0.05850
v -1.42000 1.76676 -0.04691
v -1.20000 1.76676 -0.04691
v -1.42000 1.78757 -0.02603
v -1.20000 1.78757 -0.02603
v 1.20000 1.79500 0.00000
v 1.42000 1.79500 0.00000
v 1.20000 1.78757 0.02603
v 1.42000 1.78757 0.02603
v 1.20000 1.76676 0.04691
v 1.42000 1.76676 0.04691
v 1.20000 1.73669 0.05850
v 1.42000 1.73669 0.05850
v 1.20000 1.70331 0.05850
v 1.42000 1.70331 0.05850
v 1.20000 1.67324 0.04691
v 1.42000 1.67324 0.04691
v 1.20000 1.65243 0.02603
v 1.42000 1.65243 0.02603
v 1.20000 1.64500 0.00000
v 1.42000 1.64500 0.00000
v 1.20000 1.65243 -0.02603
v 1.42000 1.65243 -0.02603
v 1.20000 1.67324 -0.04691
v 1.42000 1.67324 -0.04691
v 1.20000 1.70331 -0.05850
v 1.42000 1.70331 -0.05850
v 1.20000 1.73669 -0.05850
v 1.42000 1.73669 -0.05850
v 1.20000 1.76676 -0.04691
v 1.42000 1.76676 -0.04691
v 1.20000 1.78757 -0.02603
v 1.42000 1.78757 -0.02603
v -0.06500 0.28000 0.00000
v -0.06500 1.16000 0.00000
v -0.07223 0.28000 0.02870
v -0.07223 1.16000 0.02870
v -0.09282 0.28000 0.05303
v -0.09282 1.16000 0.05303
v -0.12365 0.28000 0.06929
v -0.12365 1.16000 0.06929
v -0.16000 0.28000 0.07500
v -0.16000 1.16000 0.07500
v -0.19635 0.28000 0.06929
v -0.19635 1.16000 0.06929
v -0.22718 0.28000 0.05303
v -0.22718 1.16000 0.05303
v -0.24777 0.28000 0.02870
v -0.24777 1.16000 0.02870
v -0.25500 0.28000 0.00000
v -0.25500 1.16000 0.00000
v -0.24777 0.28000 -0.02870
v -0.24777 1.16000 -0.02870
v -0.22718 0.28000 -0.05303
v -0.22718 1.16000 -0.05303
v -0.19635 0.28000 -0.06929
v -0.19635 1.16000 -0.06929
v -0.16000 0.28000 -0.07500
v -0.16000 1.16000 -0.07500
v -0.12365 0.28000 -0.06929
v -0.12365 1.16000 -0.06929
v -0.09282 0.28000 -0.05303
v -0.09282 1.16000 -0.05303
v -0.07223 0.28000 -0.02870
v -0.07223 1.16000 -0.02870
v 0.25500 0.28000 0.00000
v 0.25500 1.16000 0.00000
v 0.24777 0.28000 0.02870
v 0.24777 1.16000 0.02870
v 0.22718 0.28000 0.05303
v 0.22718 1.16000 0.05303
v 0.19635 0.28000 0.06929
v 0.19635 1.16000 0.06929
v 0.16000 0.28000 0.07500
v 0.16000 1.16000 0.07500
v 0.12365 0.28000 0.06929
v 0.12365 1.16000 0.06929
v 0.09282 0.28000 0.05303
v 0.09282 1.16000 0.05303
v 0.07223 0.28000 0.02870
v 0.07223 1.16000 0.02870
v 0.06500 0.28000 0.00000
v 0.06500 1.16000 0.00000
v 0.07223 0.28000 -0.02870
v 0.07223 1.16000 -0.02870
v 0.09282 0.28000 -0.05303
v 0.09282 1.16000 -0.05303
v 0.12365 0.28000 -0.06929
v 0.12365 1.16000 -0.06929
v 0.16000 0.28000 -0.07500
v 0.16000 1.16000 -0.07500
v 0.19635 0.28000 -0.06929
v 0.19635 1.16000 -0.06929
v 0.22718 0.28000 -0.05303
v 0.22718 1.16000 -0.05303
v 0.24777 0.28000 -0.02870
v 0.24777 1.16000 -0.02870
v -0.04000 0.04500 -0.02000
v -0.04000 0.39500 -0.02000
v -0.04913 0.04500 0.01827
v -0.04913 0.39500 0.01827
v -0.07515 0.04500 0.05071
v -0.07515 0.39500 0.05071
v -0.11408 0.04500 0.07239
v -0.11408 0.39500 0.07239
v -0.16000 0.04500 0.08000
v -0.16000 0.39500 0.08000
v -0.20592 0.04500 0.07239
v -0.20592 0.39500 0.07239
v -0.24485 0.04500 0.05071
v -0.24485 0.39500 0.05071
v -0.27087 0.04500 0.01827
v -0.27087 0.39500 0.01827
v -0.28000 0.04500 -0.02000
v -0.28000 0.39500 -0.02000
v -0.27087 0.04500 -0.05827
v -0.27087 0.39500 -0.05827
v -0.24485 0.04500 -0.09071
v -0.24485 0.39500 -0.09071
v -0.20592 0.04500 -0.11239
v -0.20592 0.39500 -0.11239
v -0.16000 0.04500 -0.12000
v -0.16000 0.39500 -0.12000
v -0.11408 0.04500 -0.11239
v -0.11408 0.39500 -0.11239
v -0.07515 0.04500 -0.09071
v -0.07515 0.39500 -0.09071
v -0.04913 0.04500 -0.05827
v -0.04913 0.39500 -0.05827
v 0.28000 0.04500 -0.02000
v 0.28000 0.39500 -0.02000
v 0.27087 0.04500 0.01827
v 0.27087 0.39500 0.01827
v 0.24485 0.04500 0.05071
v 0.24485 0.39500 0.05071
v 0.20592 0.04500 0.07239
v 0.20592 0.39500 0.07239
v 0.16000 0.04500 0.08000
v 0.16000 0.39500 0.08000
v 0.11408 0.04500 0.07239
v 0.11408 0.39500 0.07239
v 0.07515 0.04500 0.05071
v 0.07515 0.39500 0.05071
v 0.04913 0.04500 0.01827
v 0.04913 0.39500 0.01827
v 0.04000 0.04500 -0.02000
v 0.04000 0.39500 -0.02000
v 0.04913 0.04500 -0.05827
v 0.04913 0.39500 -0.05827
v 0.07515 0.04500 -0.09071
v 0.07515 0.39500 -0.09071
v 0.11408 0.04500 -0.11239
v 0.11408 0.39500 -0.11239
v 0.16000 0.04500 -0.12000
v 0.16000 0.39500 -0.12000
v 0.20592 0.04500 -0.11239
v 0.20592 0.39500 -0.11239
v 0.24485 0.04500 -0.09071
v 0.24485 0.39500 -0.09071
v 0.27087 0.04500 -0.05827
v 0.27087 0.39500 -0.05827
v -0.27000 -0.01500 -0.22000
v -0.05000 -0.01500 -0.22000
v -0.05000 0.07500 -0.22000
v -0.27000 0.07500 -0.22000
v -0.27000 -0.01500 0.06000
v -0.05000 -0.01500 0.06000
v -0.05000 0.07500 0.06000
v -0.27000 0.07500 0.06000
v 0.05000 -0.01500 -0.22000
v 0.27000 -0.01500 -0.22000
v 0.27000 0.07500 -0.22000
v 0.05000 0.07500 -0.22000
v 0.05000 -0.01500 0.06000
v 0.27000 -0.01500 0.06000
v 0.27000 0.07500 0.06000
v 0.05000 0.07500 0.06000
v 0.00000 1.20000 0.27000
v 0.00000 1.20000 0.27000
v 0.00000 1.20000 0.27000
v 0.00000 1.20000 0.27000
v 0.00000 1.20000 0.27000
v 0.00000 1.20000 0.27000
v 0.00000 1.20000 0.27000
v 0.00000 1.20000 0.27000
v 0.00000 1.20000 0.27000
v 0.00000 1.20000 0.27000
v 0.00000 1.20000 0.27000
v 0.00000 1.20000 0.27000
v 0.00000 1.20000 0.27000
v 0.00000 1.20000 0.27000
v 0.06074 1.18812 0.27000
v 0.05473 1.18812 0.29259
v 0.03787 1.18812 0.31071
v 0.01352 1.18812 0.32076
v -0.01352 1.18812 0.32076
v -0.03787 1.18812 0.31071
v -0.05473 1.18812 0.29259
v -0.06074 1.18812 0.27000
v -0.05473 1.18812 0.24741
v -0.03787 1.18812 0.22929
v -0.01352 1.18812 0.21924
v 0.01352 1.18812 0.21924
v 0.03787 1.18812 0.22929
v 0.05473 1.18812 0.24741
v 0.10946 1.15482 0.27000
v 0.09862 1.15482 0.31071
v 0.06824 1.15482 0.34335
v 0.02436 1.15482 0.36147
v -0.02436 1.15482 0.36147
v -0.06824 1.15482 0.34335
v -0.09862 1.15482 0.31071
v -0.10946 1.15482 0.27000
v -0.09862 1.15482 0.22929
v -0.06824 1.15482 0.19665
v -0.02436 1.15482 0.17853
v 0.02436 1.15482 0.17853
v 0.06824 1.15482 0.19665
v 0.09862 1.15482 0.22929
v 0.13649 1.10670 0.27000
v 0.12297 1.10670 0.32076
v 0.08510 1.10670 0.36147
v 0.03037 1.10670 0.38406
v -0.03037 1.10670 0.38406
v -0.08510 1.10670 0.36147
v -0.12297 1.10670 0.32076
v -0.13649 1.10670 0.27000
v -0.12297 1.10670 0.21924
v -0.08510 1.10670 0.17853
v -0.03037 1.10670 0.15594
v 0.03037 1.10670 0.15594
v 0.08510 1.10670 0.17853
v 0.12297 1.10670 0.21924
v 0.13649 1.05330 0.27000
v 0.12297 1.05330 0.32076
v 0.08510 1.05330 0.36147
v 0.03037 1.05330 0.38406
v -0.03037 1.05330 0.38406
v -0.08510 1.05330 0.36147
v -0.12297 1.05330 0.32076
v -0.13649 1.05330 0.27000
v -0.12297 1.05330 0.21924
v -0.08510 1.05330 0.17853
v -0.03037 1.05330 0.15594
v 0.03037 1.05330 0.15594
v 0.08510 1.05330 0.17853
v 0.12297 1.05330 0.21924
v 0.10946 1.00518 0.27000
v 0.09862 1.00518 0.31071
v 0.06824 1.00518 0.34335
v 0.02436 1.00518 0.36147
v -0.02436 1.00518 0.36147
v -0.06824 1.00518 0.34335
v -0.09862 1.00518 0.31071
v -0.10946 1.00518 0.27000
v -0.09862 1.00518 0.22929
v -0.06824 1.00518 0.19665
v -0.02436 1.00518 0.17853
v 0.02436 1.00518 0.17853
v 0.06824 1.00518 0.19665
v 0.09862 1.00518 0.22929
v 0.06074 0.97188 0.27000
v 0.05473 0.97188 0.29259
v 0.03787 0.97188 0.31071
v 0.01352 0.97188 0.32076
v -0.01352 0.97188 0.32076
v -0.03787 0.97188 0.31071
v -0.05473 0.97188 0.29259
v -0.06074 0.97188 0.27000
v -0.05473 0.97188 0.24741
v -0.03787 0.97188 0.22929
v -0.01352 0.97188 0.21924
v 0.01352 0.97188 0.21924
v 0.03787 0.97188 0.22929
v 0.05473 0.97188 0.24741
v 0.00000 0.96000 0.27000
v 0.00000 0.96000 0.27000
v 0.00000 0.96000 0.27000
v 0.00000 0.96000 0.27000
v -0.00000 0.96000 0.27000
v -0.00000 0.96000 0.27000
v -0.00000 0.96000 0.27000
v -0.00000 0.96000 0.27000
v -0.00000 0.96000 0.27000
v -0.00000 0.96000 0.27000
v -0.00000 0.96000 0.27000
v 0.00000 0.96000 0.27000
v 0.00000 0.96000 0.27000
v 0.00000 0.96000 0.27000
usemtl outfit_cream
f 1 2 22 21
f 2 3 23 22
f 3 4 24 23
f 4 5 25 24
f 5 6 26 25
f 6 7 27 26
f 7 8 28 27
f 8 9 29 28
f 9 10 30 29
f 10 11 31 30
f 11 12 32 31
f 12 13 33 32
f 13 14 34 33
f 14 15 35 34
f 15 16 36 35
f 16 17 37 36
f 17 18 38 37
f 18 19 39 38
f 19 20 40 39
f 20 1 21 40
f 21 22 42 41
f 22 23 43 42
f 23 24 44 43
f 24 25 45 44
f 25 26 46 45
f 26 27 47 46
f 27 28 48 47
f 28 29 49 48
f 29 30 50 49
f 30 31 51 50
f 31 32 52 51
f 32 33 53 52
f 33 34 54 53
f 34 35 55 54
f 35 36 56 55
f 36 37 57 56
f 37 38 58 57
f 38 39 59 58
f 39 40 60 59
f 40 21 41 60
f 41 42 62 61
f 42 43 63 62
f 43 44 64 63
f 44 45 65 64
f 45 46 66 65
f 46 47 67 66
f 47 48 68 67
f 48 49 69 68
f 49 50 70 69
f 50 51 71 70
f 51 52 72 71
f 52 53 73 72
f 53 54 74 73
f 54 55 75 74
f 55 56 76 75
f 56 57 77 76
f 57 58 78 77
f 58 59 79 78
f 59 60 80 79
f 60 41 61 80
f 61 62 82 81
f 62 63 83 82
f 63 64 84 83
f 64 65 85 84
f 65 66 86 85
f 66 67 87 86
f 67 68 88 87
f 68 69 89 88
f 69 70 90 89
f 70 71 91 90
f 71 72 92 91
f 72 73 93 92
f 73 74 94 93
f 74 75 95 94
f 75 76 96 95
f 76 77 97 96
f 77 78 98 97
f 78 79 99 98
f 79 80 100 99
f 80 61 81 100
f 81 82 102 101
f 82 83 103 102
f 83 84 104 103
f 84 85 105 104
f 85 86 106 105
f 86 87 107 106
f 87 88 108 107
f 88 89 109 108
f 89 90 110 109
f 90 91 111 110
f 91 92 112 111
f 92 93 113 112
f 93 94 114 113
f 94 95 115 114
f 95 96 116 115
f 96 97 117 116
f 97 98 118 117
f 98 99 119 118
f 99 100 120 119
f 100 81 101 120
f 101 102 122 121
f 102 103 123 122
f 103 104 124 123
f 104 105 125 124
f 105 106 126 125
f 106 107 127 126
f 107 108 128 127
f 108 109 129 128
f 109 110 130 129
f 110 111 131 130
f 111 112 132 131
f 112 113 133 132
f 113 114 134 133
f 114 115 135 134
f 115 116 136 135
f 116 117 137 136
f 117 118 138 137
f 118 119 139 138
f 119 120 140 139
f 120 101 121 140
f 121 122 142 141
f 122 123 143 142
f 123 124 144 143
f 124 125 145 144
f 125 126 146 145
f 126 127 147 146
f 127 128 148 147
f 128 129 149 148
f 129 130 150 149
f 130 131 151 150
f 131 132 152 151
f 132 133 153 152
f 133 134 154 153
f 134 135 155 154
f 135 136 156 155
f 136 137 157 156
f 137 138 158 157
f 138 139 159 158
f 139 140 160 159
f 140 121 141 160
f 141 142 162 161
f 142 143 163 162
f 143 144 164 163
f 144 145 165 164
f 145 146 166 165
f 146 147 167 166
f 147 148 168 167
f 148 149 169 168
f 149 150 170 169
f 150 151 171 170
f 151 152 172 171
f 152 153 173 172
f 153 154 174 173
f 154 155 175 174
f 155 156 176 175
f 156 157 177 176
f 157 158 178 177
f 158 159 179 178
f 159 160 180 179
f 160 141 161 180
f 161 162 182 181
f 162 163 183 182
f 163 164 184 183
f 164 165 185 184
f 165 166 186 185
f 166 167 187 186
f 167 168 188 187
f 168 169 189 188
f 169 170 190 189
f 170 171 191 190
f 171 172 192 191
f 172 173 193 192
f 173 174 194 193
f 174 175 195 194
f 175 176 196 195
f 176 177 197 196
f 177 178 198 197
f 178 179 199 198
f 179 180 200 199
f 180 161 181 200
f 181 182 202 201
f 182 183 203 202
f 183 184 204 203
f 184 185 205 204
f 185 186 206 205
f 186 187 207 206
f 187 188 208 207
f 188 189 209 208
f 189 190 210 209
f 190 191 211 210
f 191 192 212 211
f 192 193 213 212
f 193 194 214 213
f 194 195 215 214
f 195 196 216 215
f 196 197 217 216
f 197 198 218 217
f 198 199 219 218
f 199 200 220 219
f 200 181 201 220
usemtl outfit_pink
f 221 223 224 222
f 223 225 226 224
f 225 227 228 226
f 227 229 230 228
f 229 231 232 230
f 231 233 234 232
f 233 235 236 234
f 235 237 238 236
f 237 239 240 238
f 239 241 242 240
f 241 243 244 242
f 243 245 246 244
f 245 247 248 246
f 247 249 250 248
f 249 251 252 250
f 251 253 254 252
f 253 255 256 254
f 255 257 258 256
f 257 259 260 258
f 259 221 222 260
f 259 257 255 253 251 249 247 245 243 241 239 237 235 233 231 229 227 225 223 221
f 222 224 226 228 230 232 234 236 238 240 242 244 246 248 250 252 254 256 258 260
usemtl leather
f 261 263 264 262
f 263 265 266 264
f 265 267 268 266
f 267 269 270 268
f 269 271 272 270
f 271 273 274 272
f 273 275 276 274
f 275 277 278 276
f 277 279 280 278
f 279 281 282 280
f 281 283 284 282
f 283 285 286 284
f 285 287 288 286
f 287 289 290 288
f 289 291 292 290
f 291 293 294 292
f 293 295 296 294
f 295 297 298 296
f 297 299 300 298
f 299 261 262 300
f 299 297 295 293 291 289 287 285 283 281 279 277 275 273 271 269 267 265 263 261
f 262 264 266 268 270 272 274 276 278 280 282 284 286 288 290 292 294 296 298 300
usemtl gold
f 301 302 303 304
f 306 305 308 307
f 305 301 304 308
f 302 306 307 303
f 304 303 307 308
f 305 306 302 301
usemtl fur_white
f 309 310 334 333
f 310 311 335 334
f 311 312 336 335
f 312 313 337 336
f 313 314 338 337
f 314 315 339 338
f 315 316 340 339
f 316 317 341 340
f 317 318 342 341
f 318 319 343 342
f 319 320 344 343
f 320 321 345 344
f 321 322 346 345
f 322 323 347 346
f 323 324 348 347
f 324 325 349 348
f 325 326 350 349
f 326 327 351 350
f 327 328 352 351
f 328 329 353 352
f 329 330 354 353
f 330 331 355 354
f 331 332 356 355
f 332 309 333 356
f 333 334 358 357
f 334 335 359 358
f 335 336 360 359
f 336 337 361 360
f 337 338 362 361
f 338 339 363 362
f 339 340 364 363
f 340 341 365 364
f 341 342 366 365
f 342 343 367 366
f 343 344 368 367
f 344 345 369 368
f 345 346 370 369
f 346 347 371 370
f 347 348 372 371
f 348 349 373 372
f 349 350 374 373
f 350 351 375 374
f 351 352 376 375
f 352 353 377 376
f 353 354 378 377
f 354 355 379 378
f 355 356 380 379
f 356 333 357 380
f 357 358 382 381
f 358 359 383 382
f 359 360 384 383
f 360 361 385 384
f 361 362 386 385
f 362 363 387 386
f 363 364 388 387
f 364 365 389 388
f 365 366 390 389
f 366 367 391 390
f 367 368 392 391
f 368 369 393 392
f 369 370 394 393
f 370 371 395 394
f 371 372 396 395
f 372 373 397 396
f 373 374 398 397
f 374 375 399 398
f 375 376 400 399
f 376 377 401 400
f 377 378 402 401
f 378 379 403 402
f 379 380 404 403
f 380 357 381 404
f 381 382 406 405
f 382 383 407 406
f 383 384 408 407
f 384 385 409 408
f 385 386 410 409
f 386 387 411 410
f 387 388 412 411
f 388 389 413 412
f 389 390 414 413
f 390 391 415 414
f 391 392 416 415
f 392 393 417 416
f 393 394 418 417
f 394 395 419 418
f 395 396 420 419
f 396 397 421 420
f 397 398 422 421
f 398 399 423 422
f 399 400 424 423
f 400 401 425 424
f 401 402 426 425
f 402 403 427 426
f 403 404 428 427
f 404 381 405 428
f 405 406 430 429
f 406 407 431 430
f 407 408 432 431
f 408 409 433 432
f 409 410 434 433
f 410 411 435 434
f 411 412 436 435
f 412 413 437 436
f 413 414 438 437
f 414 415 439 438
f 415 416 440 439
f 416 417 441 440
f 417 418 442 441
f 418 419 443 442
f 419 420 444 443
f 420 421 445 444
f 421 422 446 445
f 422 423 447 446
f 423 424 448 447
f 424 425 449 448
f 425 426 450 449
f 426 427 451 450
f 427 428 452 451
f 428 405 429 452
f 429 430 454 453
f 430 431 455 454
f 431 432 456 455
f 432 433 457 456
f 433 434 458 457
f 434 435 459 458
f 435 436 460 459
f 436 437 461 460
f 437 438 462 461
f 438 439 463 462
f 439 440 464 463
f 440 441 465 464
f 441 442 466 465
f 442 443 467 466
f 443 444 468 467
f 444 445 469 468
f 445 446 470 469
f 446 447 471 470
f 447 448 472 471
f 448 449 473 472
f 449 450 474 473
f 450 451 475 474
f 451 452 476 475
f 452 429 453 476
f 453 454 478 477
f 454 455 479 478
f 455 456 480 479
f 456 457 481 480
f 457 458 482 481
f 458 459 483 482
f 459 460 484 483
f 460 461 485 484
f 461 462 486 485
f 462 463 487 486
f 463 464 488 487
f 464 465 489 488
f 465 466 490 489
f 466 467 491 490
f 467 468 492 491
f 468 469 493 492
f 469 470 494 493
f 470 471 495 494
f 471 472 496 495
f 472 473 497 496
f 473 474 498 497
f 474 475 499 498
f 475 476 500 499
f 476 453 477 500
f 477 478 502 501
f 478 479 503 502
f 479 480 504 503
f 480 481 505 504
f 481 482 506 505
f 482 483 507 506
f 483 484 508 507
f 484 485 509 508
f 485 486 510 509
f 486 487 511 510
f 487 488 512 511
f 488 489 513 512
f 489 490 514 513
f 490 491 515 514
f 491 492 516 515
f 492 493 517 516
f 493 494 518 517
f 494 495 519 518
f 495 496 520 519
f 496 497 521 520
f 497 498 522 521
f 498 499 523 522
f 499 500 524 523
f 500 477 501 524
f 501 502 526 525
f 502 503 527 526
f 503 504 528 527
f 504 505 529 528
f 505 506 530 529
f 506 507 531 530
f 507 508 532 531
f 508 509 533 532
f 509 510 534 533
f 510 511 535 534
f 511 512 536 535
f 512 513 537 536
f 513 514 538 537
f 514 515 539 538
f 515 516 540 539
f 516 517 541 540
f 517 518 542 541
f 518 519 543 542
f 519 520 544 543
f 520 521 545 544
f 521 522 546 545
f 522 523 547 546
f 523 524 548 547
f 524 501 525 548
f 525 526 550 549
f 526 527 551 550
f 527 528 552 551
f 528 529 553 552
f 529 530 554 553
f 530 531 555 554
f 531 532 556 555
f 532 533 557 556
f 533 534 558 557
f 534 535 559 558
f 535 536 560 559
f 536 537 561 560
f 537 538 562 561
f 538 539 563 562
f 539 540 564 563
f 540 541 565 564
f 541 542 566 565
f 542 543 567 566
f 543 544 568 567
f 544 545 569 568
f 545 546 570 569
f 546 547 571 570
f 547 548 572 571
f 548 525 549 572
f 549 550 574 573
f 550 551 575 574
f 551 552 576 575
f 552 553 577 576
f 553 554 578 577
f 554 555 579 578
f 555 556 580 579
f 556 557 581 580
f 557 558 582 581
f 558 559 583 582
f 559 560 584 583
f 560 561 585 584
f 561 562 586 585
f 562 563 587 586
f 563 564 588 587
f 564 565 589 588
f 565 566 590 589
f 566 567 591 590
f 567 568 592 591
f 568 569 593 592
f 569 570 594 593
f 570 571 595 594
f 571 572 596 595
f 572 549 573 596
f 573 574 598 597
f 574 575 599 598
f 575 576 600 599
f 576 577 601 600
f 577 578 602 601
f 578 579 603 602
f 579 580 604 603
f 580 581 605 604
f 581 582 606 605
f 582 583 607 606
f 583 584 608 607
f 584 585 609 608
f 585 586 610 609
f 586 587 611 610
f 587 588 612 611
f 588 589 613 612
f 589 590 614 613
f 590 591 615 614
f 591 592 616 615
f 592 593 617 616
f 593 594 618 617
f 594 595 619 618
f 595 596 620 619
f 596 573 597 620
usemtl fur_cream
f 621 622 640 639
f 622 623 641 640
f 623 624 642 641
f 624 625 643 642
f 625 626 644 643
f 626 627 645 644
f 627 628 646 645
f 628 629 647 646
f 629 630 648 647
f 630 631 649 648
f 631 632 650 649
f 632 633 651 650
f 633 634 652 651
f 634 635 653 652
f 635 636 654 653
f 636 637 655 654
f 637 638 656 655
f 638 621 639 656
f 639 640 658 657
f 640 641 659 658
f 641 642 660 659
f 642 643 661 660
f 643 644 662 661
f 644 645 663 662
f 645 646 664 663
f 646 647 665 664
f 647 648 666 665
f 648 649 667 666
f 649 650 668 667
f 650 651 669 668
f 651 652 670 669
f 652 653 671 670
f 653 654 672 671
f 654 655 673 672
f 655 656 674 673
f 656 639 657 674
f 657 658 676 675
f 658 659 677 676
f 659 660 678 677
f 660 661 679 678
f 661 662 680 679
f 662 663 681 680
f 663 664 682 681
f 664 665 683 682
f 665 666 684 683
f 666 667 685 684
f 667 668 686 685
f 668 669 687 686
f 669 670 688 687
f 670 671 689 688
f 671 672 690 689
f 672 673 691 690
f 673 674 692 691
f 674 657 675 692
f 675 676 694 693
f 676 677 695 694
f 677 678 696 695
f 678 679 697 696
f 679 680 698 697
f 680 681 699 698
f 681 682 700 699
f 682 683 701 700
f 683 684 702 701
f 684 685 703 702
f 685 686 704 703
f 686 687 705 704
f 687 688 706 705
f 688 689 707 706
f 689 690 708 707
f 690 691 709 708
f 691 692 710 709
f 692 675 693 710
f 693 694 712 711
f 694 695 713 712
f 695 696 714 713
f 696 697 715 714
f 697 698 716 715
f 698 699 717 716
f 699 700 718 717
f 700 701 719 718
f 701 702 720 719
f 702 703 721 720
f 703 704 722 721
f 704 705 723 722
f 705 706 724 723
f 706 707 725 724
f 707 708 726 725
f 708 709 727 726
f 709 710 728 727
f 710 693 711 728
f 711 712 730 729
f 712 713 731 730
f 713 714 732 731
f 714 715 733 732
f 715 716 734 733
f 716 717 735 734
f 717 718 736 735
f 718 719 737 736
f 719 720 738 737
f 720 721 739 738
f 721 722 740 739
f 722 723 741 740
f 723 724 742 741
f 724 725 743 742
f 725 726 744 743
f 726 727 745 744
f 727 728 746 745
f 728 711 729 746
f 729 730 748 747
f 730 731 749 748
f 731 732 750 749
f 732 733 751 750
f 733 734 752 751
f 734 735 753 752
f 735 736 754 753
f 736 737 755 754
f 737 738 756 755
f 738 739 757 756
f 739 740 758 757
f 740 741 759 758
f 741 742 760 759
f 742 743 761 760
f 743 744 762 761
f 744 745 763 762
f 745 746 764 763
f 746 729 747 764
f 747 748 766 765
f 748 749 767 766
f 749 750 768 767
f 750 751 769 768
f 751 752 770 769
f 752 753 771 770
f 753 754 772 771
f 754 755 773 772
f 755 756 774 773
f 756 757 775 774
f 757 758 776 775
f 758 759 777 776
f 759 760 778 777
f 760 761 779 778
f 761 762 780 779
f 762 763 781 780
f 763 764 782 781
f 764 747 765 782
usemtl nose
f 783 784 796 795
f 784 785 797 796
f 785 786 798 797
f 786 787 799 798
f 787 788 800 799
f 788 789 801 800
f 789 790 802 801
f 790 791 803 802
f 791 792 804 803
f 792 793 805 804
f 793 794 806 805
f 794 783 795 806
f 795 796 808 807
f 796 797 809 808
f 797 798 810 809
f 798 799 811 810
f 799 800 812 811
f 800 801 813 812
f 801 802 814 813
f 802 803 815 814
f 803 804 816 815
f 804 805 817 816
f 805 806 818 817
f 806 795 807 818
f 807 808 820 819
f 808 809 821 820
f 809 810 822 821
f 810 811 823 822
f 811 812 824 823
f 812 813 825 824
f 813 814 826 825
f 814 815 827 826
f 815 816 828 827
f 816 817 829 828
f 817 818 830 829
f 818 807 819 830
f 819 820 832 831
f 820 821 833 832
f 821 822 834 833
f 822 823 835 834
f 823 824 836 835
f 824 825 837 836
f 825 826 838 837
f 826 827 839 838
f 827 828 840 839
f 828 829 841 840
f 829 830 842 841
f 830 819 831 842
f 831 832 844 843
f 832 833 845 844
f 833 834 846 845
f 834 835 847 846
f 835 836 848 847
f 836 837 849 848
f 837 838 850 849
f 838 839 851 850
f 839 840 852 851
f 840 841 853 852
f 841 842 854 853
f 842 831 843 854
f 843 844 856 855
f 844 845 857 856
f 845 846 858 857
f 846 847 859 858
f 847 848 860 859
f 848 849 861 860
f 849 850 862 861
f 850 851 863 862
f 851 852 864 863
f 852 853 865 864
f 853 854 866 865
f 854 843 855 866
usemtl eye_pink
f 867 868 880 879
f 868 869 881 880
f 869 870 882 881
f 870 871 883 882
f 871 872 884 883
f 872 873 885 884
f 873 874 886 885
f 874 875 887 886
f 875 876 888 887
f 876 877 889 888
f 877 878 890 889
f 878 867 879 890
f 879 880 892 891
f 880 881 893 892
f 881 882 894 893
f 882 883 895 894
f 883 884 896 895
f 884 885 897 896
f 885 886 898 897
f 886 887 899 898
f 887 888 900 899
f 888 889 901 900
f 889 890 902 901
f 890 879 891 902
f 891 892 904 903
f 892 893 905 904
f 893 894 906 905
f 894 895 907 906
f 895 896 908 907
f 896 897 909 908
f 897 898 910 909
f 898 899 911 910
f 899 900 912 911
f 900 901 913 912
f 901 902 914 913
f 902 891 903 914
f 903 904 916 915
f 904 905 917 916
f 905 906 918 917
f 906 907 919 918
f 907 908 920 919
f 908 909 921 920
f 909 910 922 921
f 910 911 923 922
f 911 912 924 923
f 912 913 925 924
f 913 914 926 925
f 914 903 915 926
f 915 916 928 927
f 916 917 929 928
f 917 918 930 929
f 918 919 931 930
f 919 920 932 931
f 920 921 933 932
f 921 922 934 933
f 922 923 935 934
f 923 924 936 935
f 924 925 937 936
f 925 926 938 937
f 926 915 927 938
f 927 928 940 939
f 928 929 941 940
f 929 930 942 941
f 930 931 943 942
f 931 932 944 943
f 932 933 945 944
f 933 934 946 945
f 934 935 947 946
f 935 936 948 947
f 936 937 949 948
f 937 938 950 949
f 938 927 939 950
f 951 952 964 963
f 952 953 965 964
f 953 954 966 965
f 954 955 967 966
f 955 956 968 967
f 956 957 969 968
f 957 958 970 969
f 958 959 971 970
f 959 960 972 971
f 960 961 973 972
f 961 962 974 973
f 962 951 963 974
f 963 964 976 975
f 964 965 977 976
f 965 966 978 977
f 966 967 979 978
f 967 968 980 979
f 968 969 981 980
f 969 970 982 981
f 970 971 983 982
f 971 972 984 983
f 972 973 985 984
f 973 974 986 985
f 974 963 975 986
f 975 976 988 987
f 976 977 989 988
f 977 978 990 989
f 978 979 991 990
f 979 980 992 991
f 980 981 993 992
f 981 982 994 993
f 982 983 995 994
f 983 984 996 995
f 984 985 997 996
f 985 986 998 997
f 986 975 987 998
f 987 988 1000 999
f 988 989 1001 1000
f 989 990 1002 1001
f 990 991 1003 1002
f 991 992 1004 1003
f 992 993 1005 1004
f 993 994 1006 1005
f 994 995 1007 1006
f 995 996 1008 1007
f 996 997 1009 1008
f 997 998 1010 1009
f 998 987 999 1010
f 999 1000 1012 1011
f 1000 1001 1013 1012
f 1001 1002 1014 1013
f 1002 1003 1015 1014
f 1003 1004 1016 1015
f 1004 1005 1017 1016
f 1005 1006 1018 1017
f 1006 1007 1019 1018
f 1007 1008 1020 1019
f 1008 1009 1021 1020
f 1009 1010 1022 1021
f 1010 999 1011 1022
f 1011 1012 1024 1023
f 1012 1013 1025 1024
f 1013 1014 1026 1025
f 1014 1015 1027 1026
f 1015 1016 1028 1027
f 1016 1017 1029 1028
f 1017 1018 1030 1029
f 1018 1019 1031 1030
f 1019 1020 1032 1031
f 1020 1021 1033 1032
f 1021 1022 1034 1033
f 1022 1011 1023 1034
usemtl eye_dark
f 1035 1036 1046 1045
f 1036 1037 1047 1046
f 1037 1038 1048 1047
f 1038 1039 1049 1048
f 1039 1040 1050 1049
f 1040 1041 1051 1050
f 1041 1042 1052 1051
f 1042 1043 1053 1052
f 1043 1044 1054 1053
f 1044 1035 1045 1054
f 1045 1046 1056 1055
f 1046 1047 1057 1056
f 1047 1048 1058 1057
f 1048 1049 1059 1058
f 1049 1050 1060 1059
f 1050 1051 1061 1060
f 1051 1052 1062 1061
f 1052 1053 1063 1062
f 1053 1054 1064 1063
f 1054 1045 1055 1064
f 1055 1056 1066 1065
f 1056 1057 1067 1066
f 1057 1058 1068 1067
f 1058 1059 1069 1068
f 1059 1060 1070 1069
f 1060 1061 1071 1070
f 1061 1062 1072 1071
f 1062 1063 1073 1072
f 1063 1064 1074 1073
f 1064 1055 1065 1074
f 1065 1066 1076 1075
f 1066 1067 1077 1076
f 1067 1068 1078 1077
f 1068 1069 1079 1078
f 1069 1070 1080 1079
f 1070 1071 1081 1080
f 1071 1072 1082 1081
f 1072 1073 1083 1082
f 1073 1074 1084 1083
f 1074 1065 1075 1084
f 1075 1076 1086 1085
f 1076 1077 1087 1086
f 1077 1078 1088 1087
f 1078 1079 1089 1088
f 1079 1080 1090 1089
f 1080 1081 1091 1090
f 1081 1082 1092 1091
f 1082 1083 1093 1092
f 1083 1084 1094 1093
f 1084 1075 1085 1094
f 1095 1096 1106 1105
f 1096 1097 1107 1106
f 1097 1098 1108 1107
f 1098 1099 1109 1108
f 1099 1100 1110 1109
f 1100 1101 1111 1110
f 1101 1102 1112 1111
f 1102 1103 1113 1112
f 1103 1104 1114 1113
f 1104 1095 1105 1114
f 1105 1106 1116 1115
f 1106 1107 1117 1116
f 1107 1108 1118 1117
f 1108 1109 1119 1118
f 1109 1110 1120 1119
f 1110 1111 1121 1120
f 1111 1112 1122 1121
f 1112 1113 1123 1122
f 1113 1114 1124 1123
f 1114 1105 1115 1124
f 1115 1116 1126 1125
f 1116 1117 1127 1126
f 1117 1118 1128 1127
f 1118 1119 1129 1128
f 1119 1120 1130 1129
f 1120 1121 1131 1130
f 1121 1122 1132 1131
f 1122 1123 1133 1132
f 1123 1124 1134 1133
f 1124 1115 1125 1134
f 1125 1126 1136 1135
f 1126 1127 1137 1136
f 1127 1128 1138 1137
f 1128 1129 1139 1138
f 1129 1130 1140 1139
f 1130 1131 1141 1140
f 1131 1132 1142 1141
f 1132 1133 1143 1142
f 1133 1134 1144 1143
f 1134 1125 1135 1144
f 1135 1136 1146 1145
f 1136 1137 1147 1146
f 1137 1138 1148 1147
f 1138 1139 1149 1148
f 1139 1140 1150 1149
f 1140 1141 1151 1150
f 1141 1142 1152 1151
f 1142 1143 1153 1152
f 1143 1144 1154 1153
f 1144 1135 1145 1154
usemtl fur_white
f 1155 1156 1172 1171
f 1156 1157 1173 1172
f 1157 1158 1174 1173
f 1158 1159 1175 1174
f 1159 1160 1176 1175
f 1160 1161 1177 1176
f 1161 1162 1178 1177
f 1162 1163 1179 1178
f 1163 1164 1180 1179
f 1164 1165 1181 1180
f 1165 1166 1182 1181
f 1166 1167 1183 1182
f 1167 1168 1184 1183
f 1168 1169 1185 1184
f 1169 1170 1186 1185
f 1170 1155 1171 1186
f 1171 1172 1188 1187
f 1172 1173 1189 1188
f 1173 1174 1190 1189
f 1174 1175 1191 1190
f 1175 1176 1192 1191
f 1176 1177 1193 1192
f 1177 1178 1194 1193
f 1178 1179 1195 1194
f 1179 1180 1196 1195
f 1180 1181 1197 1196
f 1181 1182 1198 1197
f 1182 1183 1199 1198
f 1183 1184 1200 1199
f 1184 1185 1201 1200
f 1185 1186 1202 1201
f 1186 1171 1187 1202
f 1187 1188 1204 1203
f 1188 1189 1205 1204
f 1189 1190 1206 1205
f 1190 1191 1207 1206
f 1191 1192 1208 1207
f 1192 1193 1209 1208
f 1193 1194 1210 1209
f 1194 1195 1211 1210
f 1195 1196 1212 1211
f 1196 1197 1213 1212
f 1197 1198 1214 1213
f 1198 1199 1215 1214
f 1199 1200 1216 1215
f 1200 1201 1217 1216
f 1201 1202 1218 1217
f 1202 1187 1203 1218
f 1203 1204 1220 1219
f 1204 1205 1221 1220
f 1205 1206 1222 1221
f 1206 1207 1223 1222
f 1207 1208 1224 1223
f 1208 1209 1225 1224
f 1209 1210 1226 1225
f 1210 1211 1227 1226
f 1211 1212 1228 1227
f 1212 1213 1229 1228
f 1213 1214 1230 1229
f 1214 1215 1231 1230
f 1215 1216 1232 1231
f 1216 1217 1233 1232
f 1217 1218 1234 1233
f 1218 1203 1219 1234
f 1219 1220 1236 1235
f 1220 1221 1237 1236
f 1221 1222 1238 1237
f 1222 1223 1239 1238
f 1223 1224 1240 1239
f 1224 1225 1241 1240
f 1225 1226 1242 1241
f 1226 1227 1243 1242
f 1227 1228 1244 1243
f 1228 1229 1245 1244
f 1229 1230 1246 1245
f 1230 1231 1247 1246
f 1231 1232 1248 1247
f 1232 1233 1249 1248
f 1233 1234 1250 1249
f 1234 1219 1235 1250
f 1235 1236 1252 1251
f 1236 1237 1253 1252
f 1237 1238 1254 1253
f 1238 1239 1255 1254
f 1239 1240 1256 1255
f 1240 1241 1257 1256
f 1241 1242 1258 1257
f 1242 1243 1259 1258
f 1243 1244 1260 1259
f 1244 1245 1261 1260
f 1245 1246 1262 1261
f 1246 1247 1263 1262
f 1247 1248 1264 1263
f 1248 1249 1265 1264
f 1249 1250 1266 1265
f 1250 1235 1251 1266
f 1251 1252 1268 1267
f 1252 1253 1269 1268
f 1253 1254 1270 1269
f 1254 1255 1271 1270
f 1255 1256 1272 1271
f 1256 1257 1273 1272
f 1257 1258 1274 1273
f 1258 1259 1275 1274
f 1259 1260 1276 1275
f 1260 1261 1277 1276
f 1261 1262 1278 1277
f 1262 1263 1279 1278
f 1263 1264 1280 1279
f 1264 1265 1281 1280
f 1265 1266 1282 1281
f 1266 1251 1267 1282
f 1267 1268 1284 1283
f 1268 1269 1285 1284
f 1269 1270 1286 1285
f 1270 1271 1287 1286
f 1271 1272 1288 1287
f 1272 1273 1289 1288
f 1273 1274 1290 1289
f 1274 1275 1291 1290
f 1275 1276 1292 1291
f 1276 1277 1293 1292
f 1277 1278 1294 1293
f 1278 1279 1295 1294
f 1279 1280 1296 1295
f 1280 1281 1297 1296
f 1281 1282 1298 1297
f 1282 1267 1283 1298
f 1299 1300 1316 1315
f 1300 1301 1317 1316
f 1301 1302 1318 1317
f 1302 1303 1319 1318
f 1303 1304 1320 1319
f 1304 1305 1321 1320
f 1305 1306 1322 1321
f 1306 1307 1323 1322
f 1307 1308 1324 1323
f 1308 1309 1325 1324
f 1309 1310 1326 1325
f 1310 1311 1327 1326
f 1311 1312 1328 1327
f 1312 1313 1329 1328
f 1313 1314 1330 1329
f 1314 1299 1315 1330
f 1315 1316 1332 1331
f 1316 1317 1333 1332
f 1317 1318 1334 1333
f 1318 1319 1335 1334
f 1319 1320 1336 1335
f 1320 1321 1337 1336
f 1321 1322 1338 1337
f 1322 1323 1339 1338
f 1323 1324 1340 1339
f 1324 1325 1341 1340
f 1325 1326 1342 1341
f 1326 1327 1343 1342
f 1327 1328 1344 1343
f 1328 1329 1345 1344
f 1329 1330 1346 1345
f 1330 1315 1331 1346
f 1331 1332 1348 1347
f 1332 1333 1349 1348
f 1333 1334 1350 1349
f 1334 1335 1351 1350
f 1335 1336 1352 1351
f 1336 1337 1353 1352
f 1337 1338 1354 1353
f 1338 1339 1355 1354
f 1339 1340 1356 1355
f 1340 1341 1357 1356
f 1341 1342 1358 1357
f 1342 1343 1359 1358
f 1343 1344 1360 1359
f 1344 1345 1361 1360
f 1345 1346 1362 1361
f 1346 1331 1347 1362
f 1347 1348 1364 1363
f 1348 1349 1365 1364
f 1349 1350 1366 1365
f 1350 1351 1367 1366
f 1351 1352 1368 1367
f 1352 1353 1369 1368
f 1353 1354 1370 1369
f 1354 1355 1371 1370
f 1355 1356 1372 1371
f 1356 1357 1373 1372
f 1357 1358 1374 1373
f 1358 1359 1375 1374
f 1359 1360 1376 1375
f 1360 1361 1377 1376
f 1361 1362 1378 1377
f 1362 1347 1363 1378
f 1363 1364 1380 1379
f 1364 1365 1381 1380
f 1365 1366 1382 1381
f 1366 1367 1383 1382
f 1367 1368 1384 1383
f 1368 1369 1385 1384
f 1369 1370 1386 1385
f 1370 1371 1387 1386
f 1371 1372 1388 1387
f 1372 1373 1389 1388
f 1373 1374 1390 1389
f 1374 1375 1391 1390
f 1375 1376 1392 1391
f 1376 1377 1393 1392
f 1377 1378 1394 1393
f 1378 1363 1379 1394
f 1379 1380 1396 1395
f 1380 1381 1397 1396
f 1381 1382 1398 1397
f 1382 1383 1399 1398
f 1383 1384 1400 1399
f 1384 1385 1401 1400
f 1385 1386 1402 1401
f 1386 1387 1403 1402
f 1387 1388 1404 1403
f 1388 1389 1405 1404
f 1389 1390 1406 1405
f 1390 1391 1407 1406
f 1391 1392 1408 1407
f 1392 1393 1409 1408
f 1393 1394 1410 1409
f 1394 1379 1395 1410
f 1395 1396 1412 1411
f 1396 1397 1413 1412
f 1397 1398 1414 1413
f 1398 1399 1415 1414
f 1399 1400 1416 1415
f 1400 1401 1417 1416
f 1401 1402 1418 1417
f 1402 1403 1419 1418
f 1403 1404 1420 1419
f 1404 1405 1421 1420
f 1405 1406 1422 1421
f 1406 1407 1423 1422
f 1407 1408 1424 1423
f 1408 1409 1425 1424
f 1409 1410 1426 1425
f 1410 1395 1411 1426
f 1411 1412 1428 1427
f 1412 1413 1429 1428
f 1413 1414 1430 1429
f 1414 1415 1431 1430
f 1415 1416 1432 1431
f 1416 1417 1433 1432
f 1417 1418 1434 1433
f 1418 1419 1435 1434
f 1419 1420 1436 1435
f 1420 1421 1437 1436
f 1421 1422 1438 1437
f 1422 1423 1439 1438
f 1423 1424 1440 1439
f 1424 1425 1441 1440
f 1425 1426 1442 1441
f 1426 1411 1427 1442
usemtl ear_pink
f 1443 1444 1456 1455
f 1444 1445 1457 1456
f 1445 1446 1458 1457
f 1446 1447 1459 1458
f 1447 1448 1460 1459
f 1448 1449 1461 1460
f 1449 1450 1462 1461
f 1450 1451 1463 1462
f 1451 1452 1464 1463
f 1452 1453 1465 1464
f 1453 1454 1466 1465
f 1454 1443 1455 1466
f 1455 1456 1468 1467
f 1456 1457 1469 1468
f 1457 1458 1470 1469
f 1458 1459 1471 1470
f 1459 1460 1472 1471
f 1460 1461 1473 1472
f 1461 1462 1474 1473
f 1462 1463 1475 1474
f 1463 1464 1476 1475
f 1464 1465 1477 1476
f 1465 1466 1478 1477
f 1466 1455 1467 1478
f 1467 1468 1480 1479
f 1468 1469 1481 1480
f 1469 1470 1482 1481
f 1470 1471 1483 1482
f 1471 1472 1484 1483
f 1472 1473 1485 1484
f 1473 1474 1486 1485
f 1474 1475 1487 1486
f 1475 1476 1488 1487
f 1476 1477 1489 1488
f 1477 1478 1490 1489
f 1478 1467 1479 1490
f 1479 1480 1492 1491
f 1480 1481 1493 1492
f 1481 1482 1494 1493
f 1482 1483 1495 1494
f 1483 1484 1496 1495
f 1484 1485 1497 1496
f 1485 1486 1498 1497
f 1486 1487 1499 1498
f 1487 1488 1500 1499
f 1488 1489 1501 1500
f 1489 1490 1502 1501
f 1490 1479 1491 1502
f 1491 1492 1504 1503
f 1492 1493 1505 1504
f 1493 1494 1506 1505
f 1494 1495 1507 1506
f 1495 1496 1508 1507
f 1496 1497 1509 1508
f 1497 1498 1510 1509
f 1498 1499 1511 1510
f 1499 1500 1512 1511
f 1500 1501 1513 1512
f 1501 1502 1514 1513
f 1502 1491 1503 1514
f 1503 1504 1516 1515
f 1504 1505 1517 1516
f 1505 1506 1518 1517
f 1506 1507 1519 1518
f 1507 1508 1520 1519
f 1508 1509 1521 1520
f 1509 1510 1522 1521
f 1510 1511 1523 1522
f 1511 1512 1524 1523
f 1512 1513 1525 1524
f 1513 1514 1526 1525
f 1514 1503 1515 1526
f 1527 1528 1540 1539
f 1528 1529 1541 1540
f 1529 1530 1542 1541
f 1530 1531 1543 1542
f 1531 1532 1544 1543
f 1532 1533 1545 1544
f 1533 1534 1546 1545
f 1534 1535 1547 1546
f 1535 1536 1548 1547
f 1536 1537 1549 1548
f 1537 1538 1550 1549
f 1538 1527 1539 1550
f 1539 1540 1552 1551
f 1540 1541 1553 1552
f 1541 1542 1554 1553
f 1542 1543 1555 1554
f 1543 1544 1556 1555
f 1544 1545 1557 1556
f 1545 1546 1558 1557
f 1546 1547 1559 1558
f 1547 1548 1560 1559
f 1548 1549 1561 1560
f 1549 1550 1562 1561
f 1550 1539 1551 1562
f 1551 1552 1564 1563
f 1552 1553 1565 1564
f 1553 1554 1566 1565
f 1554 1555 1567 1566
f 1555 1556 1568 1567
f 1556 1557 1569 1568
f 1557 1558 1570 1569
f 1558 1559 1571 1570
f 1559 1560 1572 1571
f 1560 1561 1573 1572
f 1561 1562 1574 1573
f 1562 1551 1563 1574
f 1563 1564 1576 1575
f 1564 1565 1577 1576
f 1565 1566 1578 1577
f 1566 1567 1579 1578
f 1567 1568 1580 1579
f 1568 1569 1581 1580
f 1569 1570 1582 1581
f 1570 1571 1583 1582
f 1571 1572 1584 1583
f 1572 1573 1585 1584
f 1573 1574 1586 1585
f 1574 1563 1575 1586
f 1575 1576 1588 1587
f 1576 1577 1589 1588
f 1577 1578 1590 1589
f 1578 1579 1591 1590
f 1579 1580 1592 1591
f 1580 1581 1593 1592
f 1581 1582 1594 1593
f 1582 1583 1595 1594
f 1583 1584 1596 1595
f 1584 1585 1597 1596
f 1585 1586 1598 1597
f 1586 1575 1587 1598
f 1587 1588 1600 1599
f 1588 1589 1601 1600
f 1589 1590 1602 1601
f 1590 1591 1603 1602
f 1591 1592 1604 1603
f 1592 1593 1605 1604
f 1593 1594 1606 1605
f 1594 1595 1607 1606
f 1595 1596 1608 1607
f 1596 1597 1609 1608
f 1597 1598 1610 1609
f 1598 1587 1599 1610
usemtl fur_white
f 1611 1613 1614 1612
f 1613 1615 1616 1614
f 1615 1617 1618 1616
f 1617 1619 1620 1618
f 1619 1621 1622 1620
f 1621 1623 1624 1622
f 1623 1625 1626 1624
f 1625 1627 1628 1626
f 1627 1629 1630 1628
f 1629 1631 1632 1630
f 1631 1633 1634 1632
f 1633 1635 1636 1634
f 1635 1637 1638 1636
f 1637 1639 1640 1638
f 1639 1641 1642 1640
f 1641 1611 1612 1642
f 1641 1639 1637 1635 1633 1631 1629 1627 1625 1623 1621 1619 1617 1615 1613 1611
f 1612 1614 1616 1618 1620 1622 1624 1626 1628 1630 1632 1634 1636 1638 1640 1642
f 1643 1645 1646 1644
f 1645 1647 1648 1646
f 1647 1649 1650 1648
f 1649 1651 1652 1650
f 1651 1653 1654 1652
f 1653 1655 1656 1654
f 1655 1657 1658 1656
f 1657 1659 1660 1658
f 1659 1661 1662 1660
f 1661 1663 1664 1662
f 1663 1665 1666 1664
f 1665 1667 1668 1666
f 1667 1669 1670 1668
f 1669 1671 1672 1670
f 1671 1673 1674 1672
f 1673 1643 1644 1674
f 1673 1671 1669 1667 1665 1663 1661 1659 1657 1655 1653 1651 1649 1647 1645 1643
f 1644 1646 1648 1650 1652 1654 1656 1658 1660 1662 1664 1666 1668 1670 1672 1674
f 1675 1677 1678 1676
f 1677 1679 1680 1678
f 1679 1681 1682 1680
f 1681 1683 1684 1682
f 1683 1685 1686 1684
f 1685 1687 1688 1686
f 1687 1689 1690 1688
f 1689 1691 1692 1690
f 1691 1693 1694 1692
f 1693 1695 1696 1694
f 1695 1697 1698 1696
f 1697 1699 1700 1698
f 1699 1701 1702 1700
f 1701 1703 1704 1702
f 1703 1705 1706 1704
f 1705 1675 1676 1706
f 1705 1703 1701 1699 1697 1695 1693 1691 1689 1687 1685 1683 1681 1679 1677 1675
f 1676 1678 1680 1682 1684 1686 1688 1690 1692 1694 1696 1698 1700 1702 1704 1706
f 1707 1709 1710 1708
f 1709 1711 1712 1710
f 1711 1713 1714 1712
f 1713 1715 1716 1714
f 1715 1717 1718 1716
f 1717 1719 1720 1718
f 1719 1721 1722 1720
f 1721 1723 1724 1722
f 1723 1725 1726 1724
f 1725 1727 1728 1726
f 1727 1729 1730 1728
f 1729 1731 1732 1730
f 1731 1733 1734 1732
f 1733 1735 1736 1734
f 1735 1737 1738 1736
f 1737 1707 1708 1738
f 1737 1735 1733 1731 1729 1727 1725 1723 1721 1719 1717 1715 1713 1711 1709 1707
f 1708 1710 1712 1714 1716 1718 1720 1722 1724 1726 1728 1730 1732 1734 1736 1738
usemtl leather
f 1739 1741 1742 1740
f 1741 1743 1744 1742
f 1743 1745 1746 1744
f 1745 1747 1748 1746
f 1747 1749 1750 1748
f 1749 1751 1752 1750
f 1751 1753 1754 1752
f 1753 1755 1756 1754
f 1755 1757 1758 1756
f 1757 1759 1760 1758
f 1759 1761 1762 1760
f 1761 1763 1764 1762
f 1763 1765 1766 1764
f 1765 1739 1740 1766
f 1765 1763 1761 1759 1757 1755 1753 1751 1749 1747 1745 1743 1741 1739
f 1740 1742 1744 1746 1748 1750 1752 1754 1756 1758 1760 1762 1764 1766
f 1767 1769 1770 1768
f 1769 1771 1772 1770
f 1771 1773 1774 1772
f 1773 1775 1776 1774
f 1775 1777 1778 1776
f 1777 1779 1780 1778
f 1779 1781 1782 1780
f 1781 1783 1784 1782
f 1783 1785 1786 1784
f 1785 1787 1788 1786
f 1787 1789 1790 1788
f 1789 1791 1792 1790
f 1791 1793 1794 1792
f 1793 1767 1768 1794
f 1793 1791 1789 1787 1785 1783 1781 1779 1777 1775 1773 1771 1769 1767
f 1768 1770 1772 1774 1776 1778 1780 1782 1784 1786 1788 1790 1792 1794
usemtl fur_white
f 1795 1797 1798 1796
f 1797 1799 1800 1798
f 1799 1801 1802 1800
f 1801 1803 1804 1802
f 1803 1805 1806 1804
f 1805 1807 1808 1806
f 1807 1809 1810 1808
f 1809 1811 1812 1810
f 1811 1813 1814 1812
f 1813 1815 1816 1814
f 1815 1817 1818 1816
f 1817 1819 1820 1818
f 1819 1821 1822 1820
f 1821 1823 1824 1822
f 1823 1825 1826 1824
f 1825 1795 1796 1826
f 1825 1823 1821 1819 1817 1815 1813 1811 1809 1807 1805 1803 1801 1799 1797 1795
f 1796 1798 1800 1802 1804 1806 1808 1810 1812 1814 1816 1818 1820 1822 1824 1826
f 1827 1829 1830 1828
f 1829 1831 1832 1830
f 1831 1833 1834 1832
f 1833 1835 1836 1834
f 1835 1837 1838 1836
f 1837 1839 1840 1838
f 1839 1841 1842 1840
f 1841 1843 1844 1842
f 1843 1845 1846 1844
f 1845 1847 1848 1846
f 1847 1849 1850 1848
f 1849 1851 1852 1850
f 1851 1853 1854 1852
f 1853 1855 1856 1854
f 1855 1857 1858 1856
f 1857 1827 1828 1858
f 1857 1855 1853 1851 1849 1847 1845 1843 1841 1839 1837 1835 1833 1831 1829 1827
f 1828 1830 1832 1834 1836 1838 1840 1842 1844 1846 1848 1850 1852 1854 1856 1858
usemtl leather
f 1859 1861 1862 1860
f 1861 1863 1864 1862
f 1863 1865 1866 1864
f 1865 1867 1868 1866
f 1867 1869 1870 1868
f 1869 1871 1872 1870
f 1871 1873 1874 1872
f 1873 1875 1876 1874
f 1875 1877 1878 1876
f 1877 1879 1880 1878
f 1879 1881 1882 1880
f 1881 1883 1884 1882
f 1883 1885 1886 1884
f 1885 1887 1888 1886
f 1887 1889 1890 1888
f 1889 1859 1860 1890
f 1889 1887 1885 1883 1881 1879 1877 1875 1873 1871 1869 1867 1865 1863 1861 1859
f 1860 1862 1864 1866 1868 1870 1872 1874 1876 1878 1880 1882 1884 1886 1888 1890
f 1891 1893 1894 1892
f 1893 1895 1896 1894
f 1895 1897 1898 1896
f 1897 1899 1900 1898
f 1899 1901 1902 1900
f 1901 1903 1904 1902
f 1903 1905 1906 1904
f 1905 1907 1908 1906
f 1907 1909 1910 1908
f 1909 1911 1912 1910
f 1911 1913 1914 1912
f 1913 1915 1916 1914
f 1915 1917 1918 1916
f 1917 1919 1920 1918
f 1919 1921 1922 1920
f 1921 1891 1892 1922
f 1921 1919 1917 1915 1913 1911 1909 1907 1905 1903 1901 1899 1897 1895 1893 1891
f 1892 1894 1896 1898 1900 1902 1904 1906 1908 1910 1912 1914 1916 1918 1920 1922
f 1923 1924 1925 1926
f 1928 1927 1930 1929
f 1927 1923 1926 1930
f 1924 1928 1929 1925
f 1926 1925 1929 1930
f 1927 1928 1924 1923
f 1931 1932 1933 1934
f 1936 1935 1938 1937
f 1935 1931 1934 1938
f 1932 1936 1937 1933
f 1934 1933 1937 1938
f 1935 1936 1932 1931
usemtl fur_white
f 1939 1940 1954 1953
f 1940 1941 1955 1954
f 1941 1942 1956 1955
f 1942 1943 1957 1956
f 1943 1944 1958 1957
f 1944 1945 1959 1958
f 1945 1946 1960 1959
f 1946 1947 1961 1960
f 1947 1948 1962 1961
f 1948 1949 1963 1962
f 1949 1950 1964 1963
f 1950 1951 1965 1964
f 1951 1952 1966 1965
f 1952 1939 1953 1966
f 1953 1954 1968 1967
f 1954 1955 1969 1968
f 1955 1956 1970 1969
f 1956 1957 1971 1970
f 1957 1958 1972 1971
f 1958 1959 1973 1972
f 1959 1960 1974 1973
f 1960 1961 1975 1974
f 1961 1962 1976 1975
f 1962 1963 1977 1976
f 1963 1964 1978 1977
f 1964 1965 1979 1978
f 1965 1966 1980 1979
f 1966 1953 1967 1980
f 1967 1968 1982 1981
f 1968 1969 1983 1982
f 1969 1970 1984 1983
f 1970 1971 1985 1984
f 1971 1972 1986 1985
f 1972 1973 1987 1986
f 1973 1974 1988 1987
f 1974 1975 1989 1988
f 1975 1976 1990 1989
f 1976 1977 1991 1990
f 1977 1978 1992 1991
f 1978 1979 1993 1992
f 1979 1980 1994 1993
f 1980 1967 1981 1994
f 1981 1982 1996 1995
f 1982 1983 1997 1996
f 1983 1984 1998 1997
f 1984 1985 1999 1998
f 1985 1986 2000 1999
f 1986 1987 2001 2000
f 1987 1988 2002 2001
f 1988 1989 2003 2002
f 1989 1990 2004 2003
f 1990 1991 2005 2004
f 1991 1992 2006 2005
f 1992 1993 2007 2006
f 1993 1994 2008 2007
f 1994 1981 1995 2008
f 1995 1996 2010 2009
f 1996 1997 2011 2010
f 1997 1998 2012 2011
f 1998 1999 2013 2012
f 1999 2000 2014 2013
f 2000 2001 2015 2014
f 2001 2002 2016 2015
f 2002 2003 2017 2016
f 2003 2004 2018 2017
f 2004 2005 2019 2018
f 2005 2006 2020 2019
f 2006 2007 2021 2020
f 2007 2008 2022 2021
f 2008 1995 2009 2022
f 2009 2010 2024 2023
f 2010 2011 2025 2024
f 2011 2012 2026 2025
f 2012 2013 2027 2026
f 2013 2014 2028 2027
f 2014 2015 2029 2028
f 2015 2016 2030 2029
f 2016 2017 2031 2030
f 2017 2018 2032 2031
f 2018 2019 2033 2032
f 2019 2020 2034 2033
f 2020 2021 2035 2034
f 2021 2022 2036 2035
f 2022 2009 2023 2036
f 2023 2024 2038 2037
f 2024 2025 2039 2038
f 2025 2026 2040 2039
f 2026 2027 2041 2040
f 2027 2028 2042 2041
f 2028 2029 2043 2042
f 2029 2030 2044 2043
f 2030 2031 2045 2044
f 2031 2032 2046 2045
f 2032 2033 2047 2046
f 2033 2034 2048 2047
f 2034 2035 2049 2048
f 2035 2036 2050 2049
f 2036 2023 2037 2050
